<?xml version="1.0" encoding="utf-8"?>
<svg version="1.1" xmlns="http://www.w3.org/2000/svg" x="0px" y="0px"
     viewBox="0 0 750 500" style="enable-background:new 0 0 750 500;" xml:space="preserve">
<g id="Background_Simple">
	<g>
		<path style="fill:#e44d39;" d="M728.637,192.387c0,0-16.398-88.141-133.643-142.581C477.749-4.635,423.461,49.539,364.516,72.14
			c-58.945,22.6-90.921-8.508-189.308-23.198C76.821,34.251-8.448,180.289,19.428,294.354
			c27.876,114.065,89.368,154.679,223.831,180.603c134.463,25.924,213.992-59.625,309.1-44.071
			C647.467,446.441,760.613,359.164,728.637,192.387z"/>
        <path style="opacity:0.7;fill:#FFFFFF;" d="M728.637,192.387c0,0-16.398-88.141-133.643-142.581
			C477.749-4.635,423.461,49.539,364.516,72.14c-58.945,22.6-90.921-8.508-189.308-23.198
			C76.821,34.251-8.448,180.289,19.428,294.354c27.876,114.065,89.368,154.679,223.831,180.603
			c134.463,25.924,213.992-59.625,309.1-44.071C647.467,446.441,760.613,359.164,728.637,192.387z"/>
	</g>
</g>
    <g id="Plants_1_">
	<g>
		<g>
			<g>
				<path style="fill:#263238;" d="M676.239,392.822c-0.173-0.071-0.264-0.265-0.205-0.445c4.904-15.03,17.51-26.606,32.898-30.209
					c0.193-0.046,0.388,0.074,0.433,0.269c0.045,0.194-0.075,0.388-0.269,0.433c-15.144,3.547-27.55,14.939-32.376,29.731
					c-0.062,0.189-0.265,0.293-0.455,0.231C676.256,392.828,676.248,392.825,676.239,392.822z"/>
			</g>
            <g>
				<g>
					<path style="fill:#263238;" d="M688.319,383.178c-3.399-2.812-8.781,1.852-8.698,2.017c-0.381,0.655-0.746,1.322-1.095,2.001
						c0.747-0.689,3.213-1.08,6.457-0.356C688.224,387.441,691.656,385.737,688.319,383.178z"/>
				</g>
                <g>
					<path style="fill:#263238;" d="M678.14,375.52c-3.432-2.638-5.111,3.088-2.87,5.758c2.107,2.689,3.245,4.881,3.199,5.891
						c0.303-0.702,0.624-1.394,0.961-2.077C679.26,385.07,681.297,378.138,678.14,375.52z"/>
				</g>
			</g>
            <g>
				<g>
					<path style="fill:#263238;" d="M692.681,378.302c-2.882-3.335-8.924,0.299-8.868,0.466c-0.48,0.572-0.946,1.158-1.399,1.756
						c0.845-0.538,3.329-0.486,6.395,0.787C691.892,382.466,695.54,381.387,692.681,378.302z"/>
				</g>
                <g>
					<path style="fill:#263238;" d="M683.933,369.042c-2.942-3.174-5.524,2.149-3.756,5.143c1.632,2.994,2.393,5.329,2.184,6.303
						c0.411-0.629,0.838-1.247,1.279-1.854C683.476,378.591,686.604,372.159,683.933,369.042z"/>
				</g>
			</g>
            <g>
				<g>
					<path style="fill:#263238;" d="M697.775,374.242c-2.287-3.765-8.831-1.21-8.8-1.041c-0.565,0.48-1.119,0.975-1.662,1.484
						c0.918-0.382,3.349,0.094,6.154,1.866C696.307,378.212,700.076,377.763,697.775,374.242z"/>
				</g>
                <g>
					<path style="fill:#263238;" d="M690.7,363.65c-2.371-3.619-5.794,1.189-4.546,4.428c1.112,3.22,1.478,5.643,1.114,6.562
						c0.507-0.546,1.027-1.079,1.56-1.6C688.67,372.976,692.808,367.174,690.7,363.65z"/>
				</g>
			</g>
            <g>
				<g>
					<path style="fill:#263238;" d="M703.485,371.086c-1.628-4.095-8.519-2.661-8.512-2.492c-0.637,0.379-1.265,0.773-1.883,1.183
						c0.967-0.222,3.283,0.654,5.752,2.87C701.362,374.761,705.162,374.944,703.485,371.086z"/>
				</g>
                <g>
					<path style="fill:#263238;" d="M698.285,359.457c-1.734-3.965-5.928,0.212-5.236,3.614c0.558,3.362,0.515,5.811,0.004,6.654
						c0.589-0.453,1.19-0.891,1.802-1.315C694.706,368.323,699.767,363.287,698.285,359.457z"/>
				</g>
			</g>
            <g>
				<g>
					<path style="fill:#263238;" d="M709.696,368.919c-0.919-4.313-8.006-4.041-8.022-3.872c-0.695,0.268-1.383,0.553-2.064,0.855
						c0.993-0.059,3.135,1.19,5.204,3.787C706.948,372.192,710.695,373.004,709.696,368.919z"/>
				</g>
                <g>
					<path style="fill:#263238;" d="M706.535,356.578c-1.043-4.202-5.933-0.777-5.825,2.697c-0.022,3.411-0.481,5.821-1.128,6.569
						c0.659-0.349,1.328-0.682,2.006-0.999C701.448,364.734,707.339,360.603,706.535,356.578z"/>
				</g>
			</g>
            <g>
				<path style="fill:#263238;" d="M705.698,363.412c-0.102-0.059,5.247-3.657,8.731-4.225c3.406-0.658,4.706,1.743,4.143,3.15
					c-0.542,1.423-2.933,1.784-4.959,1.664C711.62,363.722,705.727,363.309,705.698,363.412z"/>
                <path style="fill:#263238;" d="M705.607,363.634c-0.01-0.004-0.019-0.009-0.029-0.014c-0.088-0.051-0.136-0.155-0.118-0.255
					c0.001-0.007,0.004-0.014,0.008-0.022c0.018-0.065,0.034-0.114,0.121-0.146c0.859-0.825,5.808-3.76,8.802-4.247
					c1.677-0.324,3.112,0.057,3.933,1.05c0.59,0.714,0.776,1.667,0.473,2.426c-0.733,1.925-4.163,1.876-5.197,1.815
					c-1.943-0.271-7.308-0.645-7.82-0.603C705.722,363.658,705.661,363.657,705.607,363.634z M716.926,359.565
					c-0.567-0.233-1.361-0.352-2.451-0.142c-2.748,0.448-6.626,2.78-8.051,3.74c0.505,0.02,1.289,0.072,2.513,0.16
					c1.577,0.114,3.642,0.29,4.71,0.44c1.941,0.114,4.21-0.222,4.701-1.512c0.241-0.602,0.085-1.364-0.395-1.945
					C717.757,360.071,717.432,359.773,716.926,359.565z"/>
			</g>
		</g>
        <g>
			<g>
				<path style="fill:#263238;" d="M676.5,392.529c-0.17,0.078-0.374,0.014-0.466-0.152c-7.676-13.822-7.579-30.936,0.252-44.663
					c0.098-0.172,0.318-0.233,0.492-0.134c0.173,0.098,0.233,0.319,0.135,0.492c-7.707,13.51-7.802,30.353-0.247,43.956
					c0.097,0.174,0.034,0.394-0.14,0.49C676.516,392.521,676.508,392.525,676.5,392.529z"/>
			</g>
            <g>
				<g>
					<path style="fill:#263238;" d="M677.654,377.115c-4.374,0.577-4.618,7.694-4.441,7.745c0.221,0.725,0.461,1.446,0.721,2.164
						c0.003-1.017,1.395-3.089,4.133-4.973C680.713,380.085,681.8,376.411,677.654,377.115z"/>
				</g>
                <g>
					<path style="fill:#263238;" d="M665.115,379.362c-4.269,0.72-1.215,5.846,2.266,6.021c3.404,0.286,5.784,0.944,6.493,1.665
						c-0.308-0.7-0.597-1.406-0.868-2.117C672.875,385.04,669.182,378.831,665.115,379.362z"/>
				</g>
			</g>
            <g>
				<g>
					<path style="fill:#263238;" d="M677.049,370.601c-4.404-0.158-5.854,6.743-5.693,6.816c0.093,0.741,0.204,1.481,0.335,2.22
						c0.181-0.986,1.909-2.77,4.928-4.151C679.563,374.013,681.255,370.605,677.049,370.601z"/>
				</g>
                <g>
					<path style="fill:#263238;" d="M664.311,370.709c-4.327-0.004-2.184,5.51,1.212,6.252c3.304,0.841,5.533,1.873,6.105,2.689
						c-0.181-0.729-0.344-1.463-0.488-2.199C670.997,377.542,668.413,370.873,664.311,370.709z"/>
				</g>
			</g>
            <g>
				<g>
					<path style="fill:#263238;" d="M677.541,364.106c-4.315-0.887-6.896,5.647-6.751,5.74c-0.033,0.741-0.048,1.483-0.044,2.227
						c0.345-0.933,2.348-2.39,5.555-3.24C679.451,367.883,681.687,364.815,677.541,364.106z"/>
				</g>
                <g>
					<path style="fill:#263238;" d="M664.965,362.081c-4.266-0.725-3.072,5.054,0.151,6.345c3.117,1.376,5.14,2.757,5.566,3.649
						c-0.055-0.743-0.092-1.487-0.111-2.232C670.417,369.915,668.982,362.935,664.965,362.081z"/>
				</g>
			</g>
            <g>
				<g>
					<path style="fill:#263238;" d="M679.115,357.773c-4.108-1.593-7.747,4.431-7.618,4.541c-0.156,0.724-0.294,1.453-0.415,2.185
						c0.495-0.86,2.713-1.96,6.017-2.261C680.363,361.83,683.082,359.169,679.115,357.773z"/>
				</g>
                <g>
					<path style="fill:#263238;" d="M667.055,353.67c-4.086-1.428-3.879,4.488-0.915,6.296c2.843,1.879,4.608,3.577,4.879,4.525
						c0.069-0.74,0.157-1.478,0.263-2.215C671.116,362.326,670.87,355.19,667.055,353.67z"/>
				</g>
			</g>
            <g>
				<g>
					<path style="fill:#263238;" d="M681.753,351.748c-3.785-2.262-8.41,3.117-8.297,3.243c-0.277,0.692-0.536,1.39-0.778,2.095
						c0.633-0.768,3.006-1.487,6.316-1.236C682.281,355.989,685.426,353.796,681.753,351.748z"/>
				</g>
                <g>
					<path style="fill:#263238;" d="M670.56,345.666c-3.789-2.096-4.607,3.819-1.988,6.104c2.484,2.337,3.938,4.314,4.046,5.297
						c0.193-0.72,0.404-1.437,0.633-2.15C673.074,354.943,674.056,347.815,670.56,345.666z"/>
				</g>
			</g>
            <g>
				<path style="fill:#263238;" d="M674.997,350.93c-0.112,0.035,0.891-6.333,2.846-9.272c1.836-2.943,4.479-2.262,5.128-0.893
					c0.674,1.366-0.689,3.363-2.156,4.766C679.254,346.801,674.941,350.838,674.997,350.93z"/>
                <path style="fill:#263238;" d="M675.098,351.148c-0.01,0.004-0.019,0.008-0.03,0.011c-0.097,0.03-0.206-0.006-0.267-0.087
					c-0.004-0.006-0.008-0.013-0.011-0.021c-0.035-0.057-0.06-0.102-0.024-0.188c-0.02-1.191,1.198-6.814,2.878-9.34
					c0.904-1.449,2.16-2.242,3.446-2.167c0.925,0.053,1.749,0.566,2.099,1.304c0.911,1.847-1.458,4.327-2.207,5.043
					c-1.521,1.239-5.446,4.917-5.763,5.32C675.194,351.079,675.151,351.123,675.098,351.148z M679.819,340.085
					c-0.557,0.257-1.184,0.758-1.772,1.7c-1.542,2.318-2.472,6.747-2.738,8.444c0.358-0.357,0.93-0.896,1.827-1.732
					c1.157-1.077,2.691-2.471,3.527-3.152c1.404-1.345,2.702-3.236,2.092-4.474c-0.277-0.586-0.942-0.99-1.694-1.034
					C680.755,339.82,680.315,339.855,679.819,340.085z"/>
			</g>
		</g>
	</g>
        <g>
		<g>
			<g>
				<path style="fill:#263238;" d="M80.89,392.827c0.141-0.058,0.216-0.216,0.168-0.364c-4.009-12.286-14.313-21.749-26.892-24.694
					c-0.158-0.037-0.317,0.061-0.354,0.22c-0.037,0.158,0.061,0.317,0.22,0.354c12.38,2.9,22.521,12.212,26.466,24.304
					c0.051,0.155,0.217,0.239,0.372,0.189C80.876,392.832,80.883,392.829,80.89,392.827z"/>
			</g>
            <g>
				<g>
					<path style="fill:#263238;" d="M71.015,384.944c2.779-2.299,7.178,1.514,7.11,1.648c0.311,0.535,0.61,1.081,0.895,1.635
						c-0.611-0.564-2.627-0.883-5.278-0.291C71.093,388.428,68.287,387.036,71.015,384.944z"/>
				</g>
                <g>
					<path style="fill:#263238;" d="M79.337,378.683c2.806-2.157,4.178,2.524,2.346,4.707c-1.723,2.198-2.652,3.99-2.615,4.815
						c-0.248-0.574-0.51-1.14-0.785-1.698C78.421,386.49,76.756,380.823,79.337,378.683z"/>
				</g>
			</g>
            <g>
				<g>
					<path style="fill:#263238;" d="M67.45,380.957c2.355-2.726,7.295,0.244,7.249,0.381c0.392,0.468,0.774,0.946,1.144,1.435
						c-0.691-0.44-2.721-0.397-5.228,0.643C68.095,384.362,65.113,383.479,67.45,380.957z"/>
				</g>
                <g>
					<path style="fill:#263238;" d="M74.601,373.388c2.405-2.595,4.515,1.757,3.071,4.204c-1.334,2.447-1.956,4.356-1.785,5.152
						c-0.336-0.514-0.685-1.019-1.046-1.515C74.974,381.194,72.417,375.936,74.601,373.388z"/>
				</g>
			</g>
            <g>
				<g>
					<path style="fill:#263238;" d="M63.286,377.639c1.87-3.078,7.219-0.989,7.194-0.851c0.462,0.392,0.915,0.797,1.358,1.213
						c-0.75-0.313-2.738,0.077-5.031,1.525C64.486,380.884,61.404,380.517,63.286,377.639z"/>
				</g>
                <g>
					<path style="fill:#263238;" d="M69.069,368.98c1.938-2.958,4.736,0.972,3.716,3.62c-0.909,2.633-1.208,4.613-0.91,5.364
						c-0.414-0.446-0.839-0.882-1.275-1.308C70.729,376.604,67.346,371.861,69.069,368.98z"/>
				</g>
			</g>
            <g>
				<g>
					<path style="fill:#263238;" d="M58.618,375.059c1.331-3.347,6.963-2.176,6.958-2.037c0.521,0.31,1.034,0.632,1.539,0.967
						c-0.79-0.181-2.683,0.535-4.702,2.346C60.353,378.063,57.247,378.212,58.618,375.059z"/>
				</g>
                <g>
					<path style="fill:#263238;" d="M62.868,365.553c1.417-3.241,4.846,0.173,4.281,2.954c-0.456,2.748-0.421,4.75-0.004,5.44
						c-0.482-0.37-0.973-0.728-1.473-1.075C65.794,372.8,61.657,368.684,62.868,365.553z"/>
				</g>
			</g>
            <g>
				<g>
					<path style="fill:#263238;" d="M53.541,373.287c0.751-3.525,6.545-3.304,6.557-3.166c0.568,0.219,1.131,0.452,1.687,0.699
						c-0.812-0.048-2.563,0.973-4.254,3.096C55.788,375.963,52.725,376.627,53.541,373.287z"/>
				</g>
                <g>
					<path style="fill:#263238;" d="M56.125,363.2c0.852-3.435,4.85-0.635,4.762,2.205c0.018,2.788,0.393,4.759,0.922,5.37
						c-0.539-0.285-1.085-0.558-1.64-0.817C60.283,369.866,55.468,366.49,56.125,363.2z"/>
				</g>
			</g>
            <g>
				<path style="fill:#263238;" d="M56.809,368.786c0.083-0.048-4.289-2.99-7.137-3.453c-2.784-0.538-3.847,1.425-3.387,2.575
					c0.443,1.163,2.398,1.458,4.054,1.36C51.968,369.039,56.785,368.701,56.809,368.786z"/>
                <path style="fill:#263238;" d="M56.884,368.968c0.008-0.003,0.016-0.007,0.023-0.011c0.072-0.042,0.111-0.127,0.097-0.208
					c-0.001-0.006-0.003-0.012-0.006-0.018c-0.015-0.053-0.027-0.093-0.099-0.119c-0.702-0.674-4.748-3.073-7.195-3.472
					c-1.371-0.265-2.544,0.047-3.215,0.859c-0.483,0.584-0.634,1.362-0.386,1.983c0.599,1.573,3.403,1.533,4.248,1.483
					c1.589-0.222,5.974-0.527,6.393-0.493C56.789,368.987,56.839,368.986,56.884,368.968z M47.631,365.641
					c0.464-0.191,1.113-0.288,2.004-0.116c2.247,0.366,5.417,2.273,6.581,3.057c-0.413,0.016-1.054,0.059-2.054,0.131
					c-1.289,0.094-2.977,0.237-3.85,0.359c-1.587,0.093-3.442-0.181-3.843-1.236c-0.197-0.492-0.069-1.115,0.323-1.59
					C46.951,366.055,47.218,365.811,47.631,365.641z"/>
			</g>
		</g>
            <g>
			<g>
				<path style="fill:#263238;" d="M80.677,392.587c0.139,0.064,0.305,0.011,0.381-0.125c6.274-11.298,6.196-25.288-0.206-36.51
					c-0.08-0.141-0.26-0.191-0.402-0.11c-0.141,0.081-0.191,0.261-0.11,0.402c6.3,11.044,6.377,24.812,0.202,35.932
					c-0.079,0.142-0.028,0.322,0.115,0.401C80.664,392.581,80.67,392.584,80.677,392.587z"/>
			</g>
                <g>
				<g>
					<path style="fill:#263238;" d="M79.733,379.987c3.575,0.472,3.775,6.289,3.631,6.331c-0.181,0.592-0.377,1.182-0.589,1.769
						c-0.003-0.831-1.141-2.525-3.379-4.065C77.233,382.415,76.344,379.412,79.733,379.987z"/>
				</g>
                    <g>
					<path style="fill:#263238;" d="M89.983,381.824c3.49,0.588,0.993,4.779-1.853,4.922c-2.783,0.234-4.729,0.772-5.308,1.361
						c0.252-0.572,0.488-1.149,0.71-1.731C83.64,386.466,86.659,381.39,89.983,381.824z"/>
				</g>
			</g>
                <g>
				<g>
					<path style="fill:#263238;" d="M80.228,374.662c3.6-0.129,4.785,5.512,4.654,5.571c-0.076,0.606-0.167,1.211-0.273,1.815
						c-0.148-0.806-1.56-2.264-4.028-3.393C78.173,377.451,76.79,374.666,80.228,374.662z"/>
				</g>
                    <g>
					<path style="fill:#263238;" d="M90.64,374.751c3.537-0.004,1.786,4.504-0.991,5.111c-2.701,0.688-4.523,1.531-4.99,2.198
						c0.148-0.596,0.281-1.196,0.399-1.797C85.175,380.337,87.287,374.885,90.64,374.751z"/>
				</g>
			</g>
                <g>
				<g>
					<path style="fill:#263238;" d="M79.826,369.353c3.528-0.725,5.637,4.616,5.519,4.692c0.027,0.606,0.039,1.213,0.036,1.821
						c-0.282-0.762-1.919-1.954-4.541-2.648C78.264,372.44,76.436,369.933,79.826,369.353z"/>
				</g>
                    <g>
					<path style="fill:#263238;" d="M90.106,367.698c3.487-0.593,2.511,4.132-0.124,5.186c-2.548,1.125-4.202,2.254-4.55,2.983
						c0.045-0.607,0.075-1.216,0.09-1.824C85.649,374.102,86.822,368.396,90.106,367.698z"/>
				</g>
			</g>
                <g>
				<g>
					<path style="fill:#263238;" d="M78.539,364.177c3.358-1.302,6.333,3.622,6.228,3.712c0.128,0.592,0.241,1.188,0.339,1.786
						c-0.405-0.703-2.218-1.602-4.919-1.849C77.519,367.492,75.296,365.318,78.539,364.177z"/>
				</g>
                    <g>
					<path style="fill:#263238;" d="M88.397,360.822c3.34-1.167,3.171,3.669,0.748,5.147c-2.324,1.536-3.767,2.924-3.988,3.699
						c-0.057-0.605-0.128-1.209-0.215-1.811C85.078,367.898,85.279,362.065,88.397,360.822z"/>
				</g>
			</g>
                <g>
				<g>
					<path style="fill:#263238;" d="M76.383,359.251c3.094-1.849,6.875,2.548,6.782,2.651c0.226,0.566,0.438,1.136,0.636,1.712
						c-0.517-0.627-2.457-1.216-5.163-1.01C75.951,362.718,73.381,360.925,76.383,359.251z"/>
				</g>
                    <g>
					<path style="fill:#263238;" d="M85.533,354.279c3.097-1.713,3.766,3.122,1.625,4.989c-2.031,1.911-3.219,3.526-3.307,4.33
						c-0.158-0.589-0.33-1.175-0.518-1.757C83.478,361.863,82.675,356.037,85.533,354.279z"/>
				</g>
			</g>
                <g>
				<path style="fill:#263238;" d="M81.906,358.582c0.092,0.029-0.728-5.177-2.326-7.58c-1.501-2.406-3.662-1.849-4.192-0.73
					c-0.551,1.116,0.563,2.749,1.762,3.896C78.425,355.207,81.951,358.507,81.906,358.582z"/>
                    <path style="fill:#263238;" d="M81.823,358.761c0.008,0.004,0.016,0.007,0.024,0.009c0.08,0.025,0.169-0.005,0.218-0.071
					c0.003-0.005,0.006-0.01,0.009-0.017c0.029-0.047,0.049-0.083,0.02-0.153c0.016-0.974-0.979-5.57-2.352-7.635
					c-0.739-1.185-1.766-1.832-2.817-1.771c-0.757,0.044-1.43,0.462-1.716,1.066c-0.745,1.51,1.192,3.537,1.804,4.122
					c1.244,1.013,4.452,4.019,4.711,4.349C81.744,358.705,81.779,358.741,81.823,358.761z M77.964,349.717
					c0.455,0.21,0.968,0.619,1.449,1.39c1.261,1.895,2.021,5.516,2.239,6.902c-0.293-0.292-0.76-0.732-1.494-1.416
					c-0.946-0.881-2.2-2.02-2.883-2.577c-1.148-1.099-2.209-2.645-1.71-3.657c0.227-0.479,0.77-0.809,1.385-0.845
					C77.198,349.5,77.558,349.53,77.964,349.717z"/>
			</g>
		</g>
	</g>
</g>
    <g id="Floor_1_">
	
		<line style="fill:none;stroke:#263238;stroke-linecap:round;stroke-linejoin:round;stroke-miterlimit:10;"
              x1="719.737" y1="392.849" x2="35.917" y2="392.849"/>
</g>
    <g id="Map">
	<g>
		<path style="fill:#FFFFFF;" d="M553.132,281.388H204.034c-22.038,0-39.904-17.865-39.904-39.904V72.859
			c0-22.038,17.866-39.904,39.904-39.904h349.097c22.038,0,39.904,17.866,39.904,39.904v168.625
			C593.035,263.523,575.17,281.388,553.132,281.388z"/>
        <g>
			<g>
				<path style="fill:#D6D6D6;" d="M553.265,38.815H203.516c-19.367,0-35.067,15.712-35.067,35.078v61.002h-0.005v46.712h0.005
					v58.644c0,19.367,15.7,35.078,35.067,35.078h349.749c19.378,0,35.078-15.712,35.078-35.078V73.894
					C588.343,54.527,572.643,38.815,553.265,38.815z"/>
                <g>
					<path style="fill:#FFFFFF;" d="M424.613,130.298H313.945V79.494c0-0.899-0.525-1.716-1.342-2.09L228.24,38.819h-11.052
						l92.159,42.151v49.328H168.444v4.597h56.658c-4.528,45.881,17.105,72.758,36.277,87.276
						c16.549,12.531,33.696,18.103,40.727,20.007l-21.045,33.146h5.446l37.691-59.363v0.037h67.241l-10.82,59.325h4.674
						l25.612-140.429h12.602l112.177,140.429h5.884l-50.732-63.509l65.488-48.404c0.596-0.44,0.933-1.13,0.933-1.849
						c0-0.19-0.023-0.381-0.072-0.57l-19.542-76.304h50.698v-4.597h-95.177c-0.866,0-1.66,0.487-2.051,1.261l-8.67,17.138
						l-31.951-29.29l11.685-30.382h-4.924L445.64,69.013c-0.339,0.879-0.105,1.881,0.591,2.52l34.056,31.22l-29.69,58.691
						l-24.189-30.281C425.973,130.615,425.312,130.298,424.613,130.298z M494.578,84.688h38.32l19.45,75.945l-64.383,47.587
						l-34.213-42.83L494.578,84.688z M406.232,134.895l-13.954,76.507h-65.185l48.576-76.507H406.232z M370.223,134.895
						l-65.525,103.202c-5.414-1.381-23.504-6.688-40.543-19.591c-26.508-20.071-38.082-48.2-34.44-83.611H370.223z"/>
                    <g>
						<polygon style="fill:#C4C4C4;" points="377.298,38.815 377.298,45.7 420.756,63.078 420.756,97.835 378.264,79.491 
							378.264,106.524 336.749,106.524 336.749,65.975 284.028,38.815 						"/>

                        <rect x="206.177" y="234.826"
                              transform="matrix(6.123234e-17 -1 1 6.123234e-17 -25.7756 472.6111)" style="fill:#C4C4C4;"
                              width="34.481" height="28.734"/>

                        <rect x="206.982" y="203.449" transform="matrix(6.123234e-17 -1 1 6.123234e-17 5.6018 433.1881)"
                              style="fill:#C4C4C4;" width="24.826" height="20.688"/>
                        <path style="fill:#C4C4C4;"
                              d="M300.565,227.718l55.109-85.331H240.122C240.122,142.388,234.197,203.423,300.565,227.718z"/>

                        <rect x="207.71" y="179.274" transform="matrix(6.123234e-17 -1 1 6.123234e-17 29.7767 401.7341)"
                              style="fill:#C4C4C4;" width="16.091" height="13.409"/>
                        <polygon style="fill:#C4C4C4;" points="479.15,148.05 500.987,179.083 533.169,161.842 529.721,99.777 499.838,96.329
							489.494,120.465 505.585,130.81 499.838,141.154 482.598,131.959 						"/>
                        <g>
							<polygon style="fill:#C4C4C4;"
                                     points="414.319,247.492 476.408,247.492 490.568,275.33 413.009,275.33 							"/>
                            <polygon style="fill:#C4C4C4;"
                                     points="452.854,201.149 416.496,201.149 414.686,239.77 472.486,239.77 							"/>
                            <polygon style="fill:#C4C4C4;"
                                     points="416.768,195.356 449.909,195.356 438.13,172.183 417.854,172.183 							"/>
						</g>
					</g>
				</g>
			</g>
		</g>
	</g>
</g>
    <g id="Location_2">
	<g>
		<g>
			
				<line style="fill:none;stroke:#263238;stroke-width:2;stroke-linejoin:round;" x1="228.84" y1="41.027"
                      x2="230.201" y2="41.656"/>

            <line style="fill:none;stroke:#263238;stroke-width:2;stroke-linejoin:round;stroke-dasharray:3.0336,3.0336;"
                  x1="232.955" y1="42.93" x2="308.674" y2="77.946"/>
            <polyline style="fill:none;stroke:#263238;stroke-width:2;stroke-linejoin:round;" points="310.051,78.583 311.412,79.213
				311.412,80.713 			"/>

            <line style="fill:none;stroke:#263238;stroke-width:2;stroke-linejoin:round;stroke-dasharray:2.95,2.95;"
                  x1="311.412" y1="83.663" x2="311.412" y2="129.387"/>
            <polyline style="fill:none;stroke:#263238;stroke-width:2;stroke-linejoin:round;" points="311.412,130.862 311.412,132.362
				309.912,132.362 			"/>

            <line style="fill:none;stroke:#263238;stroke-width:2;stroke-linejoin:round;stroke-dasharray:2.9981,2.9981;"
                  x1="306.914" y1="132.362" x2="230.463" y2="132.362"/>
            <path style="fill:none;stroke:#263238;stroke-width:2;stroke-linejoin:round;" d="M228.964,132.362h-1.5
				c0,0-0.118,0.512-0.286,1.468"/>
            <path style="fill:none;stroke:#263238;stroke-width:2;stroke-linejoin:round;stroke-dasharray:2.9689,2.9689;"
                  d="
				M226.736,136.762c-1.561,12.117-3.053,46.906,25.153,74.553c19.577,19.19,43.307,26.516,51.449,28.575"/>
            <path style="fill:none;stroke:#263238;stroke-width:2;stroke-linejoin:round;" d="M304.781,240.241
				c0.948,0.219,1.462,0.316,1.462,0.316l0.804-1.266"/>

            <line style="fill:none;stroke:#263238;stroke-width:2;stroke-linejoin:round;stroke-dasharray:3.0576,3.0576;"
                  x1="308.687" y1="236.709" x2="373.424" y2="134.748"/>
            <polyline style="fill:none;stroke:#263238;stroke-width:2;stroke-linejoin:round;" points="374.243,133.458 375.047,132.191
				376.547,132.191 			"/>

            <line style="fill:none;stroke:#263238;stroke-width:2;stroke-linejoin:round;stroke-dasharray:3.0108,3.0108;"
                  x1="379.558" y1="132.191" x2="420.204" y2="132.191"/>
            <polyline style="fill:none;stroke:#263238;stroke-width:2;stroke-linejoin:round;" points="421.709,132.191 423.209,132.191
				424.147,133.362 			"/>

            <line style="fill:none;stroke:#263238;stroke-width:2;stroke-linejoin:round;stroke-dasharray:2.9339,2.9339;"
                  x1="425.981" y1="135.652" x2="494.751" y2="221.531"/>

            <line style="fill:none;stroke:#263238;stroke-width:2;stroke-linejoin:round;" x1="495.668" y1="222.676"
                  x2="496.606" y2="223.846"/>
		</g>
	</g>
        <g>
		<path style="fill:#FFFFFF;stroke:#263238;stroke-linecap:round;stroke-linejoin:round;stroke-miterlimit:10;" d="M229.145,137.34
			l-11.817,8.59l-10.765-8.333l-0.013-0.009c-4.875-3.47-8.057-9.165-8.057-15.606c0-10.566,8.568-19.13,19.134-19.13
			c10.566,0,19.13,8.564,19.13,19.13C236.757,128.323,233.894,133.857,229.145,137.34z"/>
            <path style="fill:#e44d39;stroke:#263238;stroke-linejoin:round;stroke-miterlimit:10;" d="M200.832,121.855
			c0,4.08,1.454,7.823,3.869,10.741c3.088,3.721,7.747,6.091,12.963,6.091c4.807,0,9.139-2.011,12.208-5.238
			c2.868-3.021,4.623-7.105,4.623-11.594c0-9.296-7.532-16.832-16.832-16.832C208.368,105.023,200.832,112.56,200.832,121.855z"/>
            <path style="fill:#263238;stroke:#263238;stroke-linejoin:round;stroke-miterlimit:10;" d="M217.664,138.687
			c4.155,0,7.952-1.504,10.889-3.995c-0.55-5.69-5.343-10.139-11.177-10.139c-5.675,0-10.355,4.213-11.113,9.68
			C209.262,136.995,213.263,138.687,217.664,138.687z"/>

            <ellipse transform="matrix(0.1602 -0.9871 0.9871 0.1602 67.111 312.7893)"
                     style="fill:#263238;stroke:#263238;stroke-linejoin:round;stroke-miterlimit:10;" cx="217.376"
                     cy="116.955" rx="7.418" ry="7.418"/>
	</g>
        <g>
		<path style="fill:#FFFFFF;stroke:#263238;stroke-linecap:round;stroke-linejoin:round;stroke-miterlimit:10;" d="M364.863,187.188
			l-11.817,8.59l-10.765-8.334l-0.013-0.009c-4.875-3.469-8.057-9.165-8.057-15.606c0-10.566,8.568-19.13,19.134-19.13
			c10.566,0,19.13,8.564,19.13,19.13C372.475,178.171,369.612,183.705,364.863,187.188z"/>
            <path style="fill:#e44d39;stroke:#263238;stroke-linejoin:round;stroke-miterlimit:10;" d="M336.55,171.704
			c0,4.08,1.454,7.823,3.869,10.741c3.088,3.721,7.747,6.091,12.963,6.091c4.807,0,9.138-2.011,12.209-5.238
			c2.868-3.021,4.623-7.105,4.623-11.594c0-9.296-7.532-16.832-16.832-16.832C344.086,154.872,336.55,162.408,336.55,171.704z"/>
            <path style="fill:#263238;stroke:#263238;stroke-linejoin:round;stroke-miterlimit:10;" d="M353.382,188.535
			c4.155,0,7.952-1.504,10.889-3.995c-0.55-5.69-5.343-10.139-11.177-10.139c-5.675,0-10.355,4.213-11.113,9.68
			C344.98,186.843,348.981,188.535,353.382,188.535z"/>
            <circle style="fill:#263238;stroke:#263238;stroke-linejoin:round;stroke-miterlimit:10;" cx="353.094"
                    cy="166.803" r="7.418"/>
	</g>
        <g>
		<path style="fill:#263238;stroke:#263238;stroke-linecap:round;stroke-linejoin:round;stroke-miterlimit:10;" d="M450.038,181.74
			c-1.076,1.163-1.971,2.546-1.965,3.003c0.006,0.457,5.551,8.092,6.322,9.029c0.771,0.937,2.88,2.713,2.88,2.713l15.198,18.465
			c-0.499,0.218-1.766,0.774-2.022,0.912c-0.321,0.172,0.389,0.697,1.192,0.775c0.804,0.078,2.003-0.262,2.003-0.262l9.063,10.563
			c0,0,2.799,0.931,4.951,0.176c2.152-0.754,5.885-3.18,8.954-6.076c3.069-2.896,4.016-3.767,4.016-3.767s0.616-0.599,0.746-0.891
			c0.13-0.292,1.2-5.054,0.695-6.117c-0.505-1.063-0.988-1.313-0.988-1.313s-6.974-8.585-7.336-9.026
			c-0.012-0.014-0.025-0.029-0.037-0.043c0.204-0.394,0.81-1.595,0.85-2.012c0.049-0.502-0.431-1.309-0.651-1.128
			c-0.197,0.162-1.193,1.497-1.404,1.781l-15.572-19.139c0,0-1.901-2.871-3.125-4.359c-1.224-1.488-5.4-5.999-6.239-6.233
			c-0.839-0.234-1.536,0.155-1.701,0.291c-0.165,0.136-5.412,3.53-7.211,4.826C456.857,175.204,451.114,180.577,450.038,181.74z"/>
            <path style="fill:#FFFFFF;" d="M490.124,199.116l1.17-0.038l-8.651-10.624l-2.764,0.796
			C479.878,189.25,488.319,198.383,490.124,199.116z"/>
            <path style="fill:#FFFFFF;" d="M478.417,187.587l2.447-1.182l-9.293-10.281c0,0,0.734,3.924,1.097,4.365
			C473.031,180.93,478.417,187.587,478.417,187.587z"/>
            <path style="fill:#FFFFFF;" d="M453.546,186.339c0,0,0.778-1.749,2.441-3.21c1.663-1.461,9.341-7.965,10.128-8.243
			c0.787-0.278,2.495-0.113,2.495-0.113s-0.926-2.473-1.762-3.264c-0.836-0.791-2.07-0.606-2.391-0.435
			c-0.321,0.172-7.03,5.046-8.767,6.753c-1.737,1.707-4.706,4.613-4.901,5.05c-0.195,0.437,0.207,2.048,0.625,2.443
			C451.832,185.716,453.546,186.339,453.546,186.339z"/>
            <path style="fill:#FFFFFF;" d="M454.675,189.845c0,0,2.951,1.452,3.424,1.803s6.388,7.312,6.388,7.312l-1.776,2.109l-5.957-7.574
			L454.675,189.845z"/>
            <path style="fill:#FFFFFF;" d="M464.454,202.961l1.394-2.349c0,0,3.362,4.534,4.104,5.772c0.742,1.238,3.663,6.135,3.663,6.135
			l-0.282,1.341L464.454,202.961z"/>
            <path style="fill:#FFFFFF;" d="M471.61,207.053c0,0,9.661-6.565,13.142-11.094l8.714,7.893c0,0,1.088,1.322,1.114,1.578
			c0.026,0.256,0.013,0.914,0.013,0.914s-2.205,4.957-5.225,7.35c-3.02,2.394-8.105,4.638-8.672,4.735
			c-0.567,0.097-1.497-0.247-1.497-0.247l-1.393-0.794L471.61,207.053z"/>
            <path style="fill:#FFFFFF;" d="M497.247,207.209c0,0,1.855,4.388,1.936,6.17c0.08,1.782-0.218,2.767-0.218,2.767
			s1.426-1.636,1.524-2.64c0.098-1.004,0.049-2.074-0.284-2.816C499.87,209.948,497.247,207.209,497.247,207.209z"/>
            <path style="fill:#FFFFFF;" d="M480.222,221.221c0,0,3.748,2.645,4.924,3.064c1.176,0.418,3.204,0.412,3.204,0.412
			s-1.815,0.939-2.427,0.981c-0.612,0.042-2.965-0.795-3.438-1.145C482.013,224.183,480.283,221.633,480.222,221.221z"/>
	</g>
</g>
    <g id="Characters_2">
	<g>
		<path style="fill:#757575;stroke:#263238;stroke-linecap:round;stroke-linejoin:round;stroke-miterlimit:10;" d="M340.74,282.016
			c0,0-9.609,24.525-11.895,32.297c-2.286,7.772-3.2,19.659-3.2,19.659l73.331,7.422c0,0,12.62-3.307,11.705-10.165
			c-0.914-6.858-9.139-19.62-20.573-30.631c-11.434-11.011-28.803-20.116-34.289-20.116S340.74,282.016,340.74,282.016z"/>
        <g>
			<polygon
                    style="fill:#263238;stroke:#263238;stroke-linecap:round;stroke-linejoin:round;stroke-miterlimit:10;"
                    points="
				597.873,308.249 602.186,327.896 585.893,331.25 			"/>
            <path style="fill:#e44d39;stroke:#263238;stroke-linecap:round;stroke-linejoin:round;stroke-miterlimit:10;"
                  d="
				M647.114,329.422c-3.161-8.955-7.902-9.482-7.902-9.482l-13.696-35.294c0,0-15.276,2.107-21.598,7.375
				c-6.321,5.268-21.071,38.981-21.071,38.981l11.589,73.221c0,0,47.936-10.009,49.516-11.062c1.58-1.054,3.161-11.062,3.687-17.383
				C648.167,369.456,650.274,338.377,647.114,329.422z M588.768,328.135c0,0,12.459-26.834,15.334-30.668
				c2.875-3.833,7.667-5.99,7.667-5.99l9.906-2.264l9.98,31.973L588.768,328.135z"/>
            <path style="fill:#263238;stroke:#263238;stroke-linecap:round;stroke-linejoin:round;stroke-miterlimit:10;"
                  d="
				M588.289,330.292l13.896-2.396c0,0,5.511-10.542,7.188-11.98c1.677-1.438,4.073-2.875,8.146-1.917
				c4.073,0.958,12.698,5.75,12.219,8.865c-0.479,3.115-1.198,4.073-5.75,4.792c-4.552,0.719-16.532,0.719-16.532,0.719
				s-3.115,5.031-3.833,5.99c-0.719,0.958-12.459,4.792-12.459,4.792S589.727,335.323,588.289,330.292z"/>
		</g>
        <g>
			<g>
				<g>
					<path style="fill:#FFFFFF;stroke:#263238;stroke-linecap:round;stroke-linejoin:round;stroke-miterlimit:10;"
                          d="
						M541.169,437.427c0,0-2.847,2.548-4.196,3.597c-1.349,1.049-3.597,2.997-5.844,3.747c-2.248,0.749-3.447,1.199-3.297,2.398
						c0.15,1.199,0.15,2.398,0.899,2.548c0.749,0.15,27.724,0,27.724,0s0.749-1.199,0.599-3.896
						c-0.15-2.697-1.049-4.796-1.049-4.796s-6.894-1.948-9.891-3.597C543.118,435.779,541.169,437.427,541.169,437.427z"/>
                    <path style="fill:#FFFFFF;stroke:#263238;stroke-linecap:round;stroke-linejoin:round;stroke-miterlimit:10;"
                          d="
						M556.902,448.367h-28.93c0.101,0.702,0.269,1.251,0.759,1.349c0.749,0.15,27.724,0,27.724,0S556.719,449.28,556.902,448.367z"
                    />
				</g>
                <path style="fill:#8C8C8C;stroke:#263238;stroke-linecap:round;stroke-linejoin:round;stroke-miterlimit:10;"
                      d="
					M532.328,335.223c0,0-1.948,12.588,0,25.626c1.948,13.038,4.046,22.329,4.046,22.329s2.997,13.038,3.297,17.234
					c0.3,4.196,3.147,26.375,2.997,26.825c-0.15,0.45-0.45,1.499-0.45,2.248c0,0.749-1.948,1.798-1.648,2.697
					c0.3,0.899,0.599,5.245,0.599,5.245s3.447-0.599,4.945,0s8.242,2.997,8.242,2.997l1.648,0.599c0,0,1.798-1.349,1.798-3.447
					c0-2.098-2.697-4.496-2.697-4.496s1.798-0.749,1.948-1.499c0.15-0.749-0.749-3.447-0.749-3.896c0-0.45-0.3-4.945-0.3-5.844
					s0.15-12.289,0.15-13.637s-1.349-22.029-1.349-22.029l-1.499-14.986c0,0,3.597,16.934,5.095,22.329
					c1.499,5.395,5.845,28.024,5.995,28.773c0.15,0.749,0.749,6.594,0.599,7.043c-0.15,0.449-1.798,1.499-1.648,2.098
					c0.15,0.599,1.199,8.092,1.199,8.092l10.79,0.899c0,0,1.199-2.248,1.798-3.896c0.599-1.648-0.45-3.147-0.45-3.746
					c0-0.599,0.899-0.45,0.599-2.847c-0.3-2.398-0.599-4.346-0.599-4.346s-0.749-1.199-0.899-5.395
					c-0.15-4.196,2.248-15.735,0.599-22.329c-1.648-6.594-3.597-12.139-3.746-19.332c-0.15-7.193-0.15-20.681-0.749-24.277
					c-0.599-3.597-1.56-14.845-1.56-14.845l-0.388-1.639L532.328,335.223z"/>
                <polyline
                        style="fill:none;stroke:#263238;stroke-linecap:round;stroke-linejoin:round;stroke-miterlimit:10;"
                        points="
					545.216,355.904 550.91,358.601 552.858,369.541 				"/>
                <path style="fill:#FFFFFF;stroke:#263238;stroke-linecap:round;stroke-linejoin:round;stroke-miterlimit:10;"
                      d="
					M565.746,437.277c0,0-1.049,3.746-2.098,5.545c-1.049,1.798-2.697,2.847-3.147,3.896c-0.45,1.049-0.3,2.997-0.3,2.997h16.035
					c0,0,1.199-1.499,1.199-5.095c0-3.597-1.349-5.395-2.548-7.493C573.689,435.03,569.643,433.531,565.746,437.277z"/>
                <path style="fill:#FFFFFF;stroke:#263238;stroke-linecap:round;stroke-linejoin:round;stroke-miterlimit:10;"
                      d="
					M577.086,447.677l-0.25-0.059h-16.569c-0.15,0.994-0.066,2.098-0.066,2.098h16.035
					C576.237,449.716,576.732,449.082,577.086,447.677z"/>
			</g>
            <path style="fill:#e44d39;stroke:#263238;stroke-linecap:round;stroke-linejoin:round;stroke-miterlimit:10;"
                  d="M542.628,270.8
				c0,0-2.963,3.048-5.313,4.34c-2.35,1.293-6.227,2.467-6.932,3.877c-0.705,1.41-1.528,11.162-0.47,16.214
				c1.057,5.052,2.35,8.577,2.35,8.577l0.823,18.682l-1.293,14.334c0,0,14.217,1.88,23.264,2.937s15.274-0.353,15.274-0.353
				s0.47-8.577,0.588-13.042c0.117-4.465,0.352-25.496,0.352-25.496l7.167,11.985c0,0,4.991,3.226,13.068-1.991
				c2.279-1.472-6.481-10.862-7.068-13.8c-0.588-2.937-4.355-9.236-4.355-9.236s-3.055-9.165-5.405-11.514
				c-2.35-2.35-5.522-2.937-8.93-3.407c-3.407-0.47-9.025-2.793-9.025-2.793L542.628,270.8z"/>
            <path style="fill:none;stroke:#263238;stroke-linecap:round;stroke-linejoin:round;stroke-miterlimit:10;" d="M583.765,300.431
				c0,0-3.702,0.505-4.712,6.9"/>
            <path style="fill:none;stroke:#263238;stroke-linecap:round;stroke-linejoin:round;stroke-miterlimit:10;" d="M576.697,302.956
				c0,0,2.524-2.524,5.385-2.524"/>
            <g>
				<path style="fill:#FFFFFF;stroke:#263238;stroke-linecap:round;stroke-linejoin:round;stroke-miterlimit:10;"
                      d="
					M532.644,247.504c0,0,0.294,10.18,0.685,11.844c0.391,1.664,3.132,5.09,4.307,6.656c1.175,1.566,3.622,1.958,3.915,1.958
					c0.294,0,1.077,1.175,1.077,2.839s-0.685,1.958-0.587,6.754c0.098,4.796,0.783,8.907,0.783,8.907s2.839-1.86,7.733-7.146
					c4.894-5.286,6.167-9.201,6.167-9.201s-2.153-1.958-2.839-4.209c-0.685-2.251-0.587-7.928-0.587-7.928s3.524-2.741,3.72-4.307
					c0.196-1.566-1.273-4.503-1.273-4.503s-1.664-5.873-3.524-8.809c-1.86-2.937-2.153-4.405-8.32-2.741
					c-6.167,1.664-8.32,2.055-10.278,3.524c-1.958,1.468-2.251,3.23-2.251,3.23L532.644,247.504z"/>
                <path style="fill:#263238;stroke:#263238;stroke-linecap:round;stroke-linejoin:round;stroke-miterlimit:10;"
                      d="
					M541.551,267.962c0,0,1.86-0.196,2.937-0.489c1.077-0.294,2.545-0.881,2.545-0.881l-4.405,4.209L541.551,267.962z"/>
                <path style="fill:none;stroke:#263238;stroke-linecap:round;stroke-linejoin:round;stroke-miterlimit:10;"
                      d="M536.213,258.641
					c0,0,0.685,1.077,1.664,0.685c0.979-0.392,1.532-0.665,1.532-0.665"/>
                <path style="fill:none;stroke:#263238;stroke-linecap:round;stroke-linejoin:round;stroke-miterlimit:10;"
                      d="M538.909,261.501
					c0,0,3.524,0.489,5.579-2.447"/>
                <path style="fill:none;stroke:#263238;stroke-linecap:round;stroke-linejoin:round;stroke-miterlimit:10;"
                      d="M540.181,250.93
					c0,0,3.132-0.881,4.796,0"/>
                <path style="fill:none;stroke:#263238;stroke-linecap:round;stroke-linejoin:round;stroke-miterlimit:10;"
                      d="M536.07,251.321
					c0,0-1.664-1.077-2.643,0.196"/>
                <path style="fill:#263238;" d="M535.125,253.682c0.078,0.647-0.138,1.204-0.482,1.245c-0.344,0.041-0.685-0.449-0.763-1.096
					c-0.078-0.646,0.138-1.204,0.482-1.245C534.706,252.545,535.048,253.035,535.125,253.682z"/>
                <path style="fill:#263238;" d="M542.12,253.409c0.077,0.646-0.138,1.204-0.482,1.245c-0.344,0.041-0.685-0.449-0.763-1.096
					c-0.078-0.646,0.138-1.204,0.482-1.245C541.701,252.272,542.042,252.763,542.12,253.409z"/>
			</g>
            <path style="fill:#263238;stroke:#263238;stroke-linecap:round;stroke-linejoin:round;stroke-miterlimit:10;"
                  d="
				M546.837,241.435c0,0-3.328,2.545-4.405,2.741c-1.077,0.196-4.894-1.077-6.265-1.175c-1.37-0.098-3.915,1.958-3.915,1.958
				l0.391,2.545c0,0-3.72-0.881-4.503-2.349c-0.783-1.468,1.86-3.426,1.762-3.915c-0.098-0.489-1.468-2.349-0.489-2.937
				c0.979-0.587,5.286-1.958,5.286-1.958s2.251-4.698,3.817-4.796s4.503,0.489,4.503,0.489s1.566-1.468,3.426-1.175
				c1.86,0.294,4.601,3.72,4.601,3.72s4.111-0.392,4.894,1.37c0.783,1.762,1.566,4.111,0.979,5.971
				c-0.587,1.86-1.175,5.775-1.175,5.775v1.468c0,0-1.664,0.294-2.447,0.979c-0.783,0.685-0.685,1.272-1.272,1.762
				c-0.587,0.49-0.881,0.49-1.273,0.294s-0.587-0.783-0.783-1.958c-0.196-1.175-0.392-1.468-1.175-1.762
				c-0.783-0.294-1.86-0.881-2.643-1.762c-0.783-0.881-1.762-1.664-1.175-2.447S546.837,241.435,546.837,241.435z"/>
            <polyline style="fill:none;stroke:#263238;stroke-linecap:round;stroke-linejoin:round;stroke-miterlimit:10;"
                      points="
				566.924,294.762 571.271,300.872 563.986,298.405 			"/>
		</g>
        <g>
			<g>
				<path style="fill:#B2B2B2;stroke:#263238;stroke-linecap:round;stroke-linejoin:round;stroke-miterlimit:10;"
                      d="
					M371.951,337.871c-0.372-1.168,11.621,0.677,11.621,0.677s3.794-16.745,2.739-18.553c-1.055-1.809-10.848-5.241-10.848-5.241
					l-22.76-1.206c0,0-9.799,4.145-9.95,5.2c-0.08,0.56-6.475,8.467-9.191,14.727L371.951,337.871z"/>
			</g>
            <path style="fill:#FFFFFF;stroke:#263238;stroke-linecap:round;stroke-linejoin:round;stroke-miterlimit:10;"
                  d="
				M357.431,312.671c0,0-1.428,1.428-1.428,5.473c0,4.045,2.618,9.28,2.618,9.28l9.042-4.759l10.505,5.375
				c0,0,1.048-10.013-2.706-13.286C371.709,311.481,359.573,309.815,357.431,312.671z"/>
            <path style="fill:#FFFFFF;stroke:#263238;stroke-linecap:round;stroke-linejoin:round;stroke-miterlimit:10;"
                  d="
				M359.013,314.489c0,0,1.919,5.504,3.911,9.24c1.992,3.736,6.475,6.475,6.475,6.475s2.241-7.471,2.49-11.206
				c0.249-3.736-0.249-5.728-0.249-5.728L359.013,314.489z"/>
            <g>
				<g>
					<path style="fill:#FFFFFF;stroke:#263238;stroke-linecap:round;stroke-linejoin:round;stroke-miterlimit:10;"
                          d="
						M352.103,304.48c0,0,0.834,8.221,1.668,8.936c0.834,0.715,5.243,1.072,5.243,1.072l9.532,0.596
						c0.953-1.787,1.549-12.034-1.787-19.899c-3.336-7.864-7.507-9.175-8.341-7.745c0,0-4.885,6.673-4.647,8.103
						c0.238,1.43,0.715,2.145,0.477,2.86c-0.238,0.715-3.098,2.026-3.455,3.336C350.435,303.051,352.103,304.48,352.103,304.48z"/>
                    <path style="fill:none;stroke:#263238;stroke-linecap:round;stroke-linejoin:round;stroke-miterlimit:10;"
                          d="M354.366,306.03
						c0,0,2.621,0,3.932-1.192"/>
                    <path style="fill:none;stroke:#263238;stroke-linecap:round;stroke-linejoin:round;stroke-miterlimit:10;"
                          d="M356.392,298.642
						c0,0,1.311-0.358,2.145,0.477"/>
                    <path style="fill:none;stroke:#263238;stroke-linecap:round;stroke-linejoin:round;stroke-miterlimit:10;"
                          d="M355.558,296.021
						c0,0,2.264-2.145,3.575,0.715"/>
				</g>
                <path style="fill:#263238;stroke:#263238;stroke-linecap:round;stroke-linejoin:round;stroke-miterlimit:10;"
                      d="
					M358.418,287.442c0,0,0.953,8.102,3.694,13.941c2.741,5.839,4.051,7.626,4.051,7.626s0,4.647-1.43,5.958
					c-1.43,1.311-2.979,1.191-2.979,1.191s-1.668,2.383,3.694,3.098c5.362,0.715,6.792-1.787,8.698-2.026
					c1.906-0.238,2.86,0.119,2.86,0.119s0.477-1.43,0.119-2.979c-0.357-1.549-0.596-2.741-0.596-2.741s3.575-4.17,3.456-8.936
					c-0.119-4.766,1.311-7.507-1.311-13.107s-16.443-6.553-19.065-6.673c-2.621-0.119-2.979,0.119-4.17,2.026
					c-1.191,1.906-4.647,4.766-4.647,6.911c0,2.145,3.455,6.553,3.455,6.553l-0.477-2.86
					C353.771,295.544,356.63,290.659,358.418,287.442z"/>
			</g>
		</g>
        <path style="fill:#263238;stroke:#263238;stroke-linecap:round;stroke-linejoin:round;stroke-miterlimit:10;" d="M445.356,421.484
			c-112.519-3.573-203.734,5.018-203.734,19.189c0,5.981,16.25,11.999,43.492,17.227c-24.625,0.499-42.575,2.044-42.575,3.872
			c0,2.233,26.747,4.043,59.742,4.043c11.94,0,23.052-0.238,32.384-0.646c31.872,3.615,69.877,6.334,110.692,7.63
			c112.519,3.573,203.734-5.018,203.734-19.189S557.875,425.057,445.356,421.484z"/>
        <path style="fill:#263238;stroke:#263238;stroke-linecap:round;stroke-linejoin:round;stroke-miterlimit:10;" d="M246.776,403.151
			c0,0,2.479,5.368,4.247,7.199c1.768,1.831,33.733,9.74,33.733,9.74l103.563,22.666l12.55-1.343l43.859,1.404
			c0,0,8.752-21.409-0.805-42.499c-9.557-21.091-57.34-29.329-70.851-25.045c-13.511,4.284-45.147,18.125-67.885,10.545
			c-22.738-7.579-40.863-22.409-48.442-20.431c-7.579,1.977-11.204,14.17-11.204,19.443
			C245.541,390.101,246.776,403.151,246.776,403.151z"/>
        <g>
			<path style="fill:#263238;stroke:#263238;stroke-linecap:round;stroke-linejoin:round;stroke-miterlimit:10;"
                  d="
				M469.422,432.478c-0.903-21.768-15.465-39.451-32.525-39.494h-18.494l0.323,7.798c-7.225,7.169-11.619,18.622-11.083,31.539
				c0.536,12.916,5.881,24.394,13.703,31.602l0.328,7.893h18.494C457.227,471.858,470.325,454.247,469.422,432.478z"/>

            <ellipse transform="matrix(0.9939 -0.11 0.11 0.9939 -45.032 48.8487)"
                     style="fill:#878787;stroke:#263238;stroke-linecap:round;stroke-linejoin:round;stroke-miterlimit:10;"
                     cx="420.038" cy="432.399" rx="30.813" ry="39.509"/>
            <path style="fill:#FFFFFF;stroke:#263238;stroke-linecap:round;stroke-linejoin:round;stroke-miterlimit:10;"
                  d="
				M443.935,445.814c0-0.001,0.001-0.002,0.001-0.003c0.302-0.974,0.567-1.973,0.793-2.995c0-0.001,0-0.001,0.001-0.002
				c0.226-1.023,0.411-2.067,0.556-3.132c0,0,0,0,0-0.001c0.315-2.322,0.439-4.734,0.336-7.216
				c-0.219-5.286-1.417-10.276-3.348-14.697c-0.018-0.04-0.036-0.08-0.053-0.121c-0.431-0.978-0.898-1.928-1.4-2.846
				c-0.031-0.057-0.061-0.114-0.093-0.171c-0.503-0.909-1.037-1.788-1.604-2.631c-0.03-0.045-0.059-0.091-0.089-0.136
				c-4.996-7.367-12.34-12.087-20.351-12.108c-6.86-0.018-12.941,3.418-17.302,9.015l0,0h0c-0.289,0.371-0.57,0.75-0.843,1.14
				c0,0,0,0-0.001,0.001c-0.272,0.387-0.537,0.784-0.793,1.189c-0.002,0.003-0.004,0.006-0.006,0.009
				c-0.253,0.4-0.497,0.807-0.734,1.223c-0.006,0.011-0.013,0.022-0.019,0.033c-0.231,0.408-0.454,0.823-0.67,1.246
				c-0.011,0.021-0.021,0.041-0.032,0.061c-0.209,0.412-0.409,0.831-0.603,1.256c-0.015,0.034-0.031,0.067-0.047,0.101
				c-0.186,0.412-0.363,0.831-0.534,1.255c-0.02,0.049-0.041,0.098-0.06,0.147c-0.163,0.411-0.319,0.829-0.468,1.251
				c-0.023,0.064-0.047,0.128-0.069,0.192c-0.141,0.407-0.274,0.82-0.402,1.236c-0.026,0.083-0.053,0.165-0.078,0.249
				c-0.12,0.4-0.23,0.805-0.337,1.212c-0.027,0.104-0.056,0.206-0.083,0.31c-0.099,0.391-0.189,0.787-0.275,1.185
				c-0.027,0.124-0.057,0.246-0.083,0.371c-0.079,0.381-0.149,0.767-0.217,1.154c-0.025,0.145-0.054,0.287-0.078,0.432
				c-0.061,0.373-0.113,0.751-0.164,1.129c-0.022,0.162-0.048,0.322-0.068,0.486c-0.045,0.367-0.079,0.739-0.114,1.11
				c-0.017,0.177-0.038,0.352-0.052,0.53c-0.029,0.367-0.048,0.738-0.068,1.109c-0.01,0.186-0.025,0.369-0.032,0.556
				c-0.015,0.391-0.019,0.786-0.023,1.181c-0.002,0.168-0.009,0.335-0.009,0.504c0.001,0.565,0.012,1.133,0.036,1.706
				c0.029,0.693,0.08,1.379,0.142,2.062c0.015,0.164,0.033,0.327,0.05,0.491c0.06,0.587,0.132,1.17,0.215,1.748
				c0.013,0.089,0.024,0.178,0.038,0.266c0.217,1.434,0.507,2.837,0.861,4.205c0,0,0,0.001,0,0.001l0,0
				c1.765,6.801,5.171,12.709,9.583,16.955c0.055,0.053,0.109,0.106,0.164,0.158c0.54,0.512,1.094,0.999,1.663,1.46
				c0.039,0.031,0.078,0.061,0.116,0.092c4.138,3.318,8.984,5.259,14.107,5.272c5.158,0.013,9.874-1.929,13.753-5.269
				c0,0,0.001,0,0.001-0.001l0,0C439.087,456.381,442.157,451.538,443.935,445.814z"/>
            <g>
				<path style="fill:#263238;stroke:#263238;stroke-linecap:round;stroke-linejoin:round;stroke-miterlimit:10;"
                      d="
					M442.694,433.457c-0.156-3.798-0.915-7.416-2.152-10.706l-10.164,6.368c0.439,1.35,0.719,2.798,0.781,4.315
					c0.009,0.217,0.001,0.429,0.001,0.643l11.544,1.879C442.728,435.133,442.729,434.301,442.694,433.457z"/>
                <path style="fill:#263238;stroke:#263238;stroke-linecap:round;stroke-linejoin:round;stroke-miterlimit:10;"
                      d="
					M424.682,421.776c1.056,0.577,2.025,1.373,2.879,2.334l7.157-11.011c-2.486-2.719-5.423-4.773-8.621-5.945L424.682,421.776z"/>
                <path style="fill:#263238;stroke:#263238;stroke-linecap:round;stroke-linejoin:round;stroke-miterlimit:10;"
                      d="
					M429.707,440.603c-0.518,1.039-1.16,1.963-1.9,2.748l5.877,13.152c2.816-2.361,5.118-5.585,6.694-9.394L429.707,440.603z"/>
                <path style="fill:#263238;stroke:#263238;stroke-linecap:round;stroke-linejoin:round;stroke-miterlimit:10;"
                      d="
					M412.414,426.585l-10.364-7.21c-1.52,3.542-2.402,7.604-2.476,11.95l11.586,0.331
					C411.284,429.809,411.722,428.09,412.414,426.585z"/>
                <path style="fill:#263238;stroke:#263238;stroke-linecap:round;stroke-linejoin:round;stroke-miterlimit:10;"
                      d="
					M415.94,422.202c0.846-0.594,1.777-1.025,2.768-1.27l-1.695-14.618c-3.667,0.65-6.985,2.484-9.718,5.199L415.94,422.202z"/>
                <path style="fill:#263238;stroke:#263238;stroke-linecap:round;stroke-linejoin:round;stroke-miterlimit:10;"
                      d="
					M422.767,446.054c-0.361,0.05-0.727,0.08-1.1,0.079c-1.057-0.002-2.083-0.215-3.056-0.603l-5.681,12.598
					c2.868,1.693,6.036,2.647,9.34,2.653c0.902,0.002,1.786-0.075,2.653-0.21L422.767,446.054z"/>
                <path style="fill:#263238;stroke:#263238;stroke-linecap:round;stroke-linejoin:round;stroke-miterlimit:10;"
                      d="
					M412.329,438.849l-11.459,2.563c1.184,4.189,3.123,7.949,5.591,11.019l7.355-10.852
					C413.235,440.753,412.739,439.834,412.329,438.849z"/>
			</g>
		</g>
        <path style="fill:#263238;stroke:#263238;stroke-linecap:round;stroke-linejoin:round;stroke-miterlimit:10;" d="M295.971,410.47
			c-0.424-18.24-7.256-33.057-15.261-33.093h-18.45l1.534,66.054h18.45C290.249,443.468,296.395,428.711,295.971,410.47z"/>
        <path style="fill:#878787;stroke:#263238;stroke-linecap:round;stroke-linejoin:round;stroke-miterlimit:10;" d="M277.521,410.47
			c0.424,18.24-5.722,32.997-13.726,32.961c-8.005-0.036-14.837-14.853-15.261-33.093c-0.424-18.24,5.722-32.997,13.726-32.961
			C270.264,377.414,277.097,392.23,277.521,410.47z"/>
        <path style="fill:#FFFFFF;stroke:#263238;stroke-linecap:round;stroke-linejoin:round;stroke-miterlimit:10;" d="M274.24,421.644
			c0-0.001,0-0.001,0-0.002c0.142-0.816,0.266-1.653,0.372-2.51c0,0,0-0.001,0-0.002c0.106-0.857,0.193-1.732,0.261-2.625
			c0,0,0,0,0,0c0.148-1.945,0.206-3.967,0.158-6.046c-0.103-4.429-0.665-8.611-1.571-12.315c-0.008-0.034-0.017-0.067-0.025-0.101
			c-0.202-0.82-0.422-1.615-0.657-2.385c-0.015-0.048-0.029-0.096-0.043-0.143c-0.236-0.762-0.487-1.498-0.753-2.205
			c-0.014-0.038-0.028-0.076-0.042-0.114c-2.344-6.173-5.79-10.128-9.549-10.145c-3.219-0.015-6.072,2.864-8.118,7.554l0,0v0
			c-0.136,0.31-0.267,0.629-0.396,0.955c0,0,0,0,0,0.001c-0.128,0.325-0.252,0.657-0.372,0.996
			c-0.001,0.003-0.002,0.005-0.003,0.008c-0.119,0.335-0.233,0.676-0.344,1.025c-0.003,0.009-0.006,0.018-0.009,0.028
			c-0.109,0.342-0.213,0.69-0.314,1.044c-0.005,0.017-0.01,0.034-0.015,0.052c-0.098,0.345-0.192,0.696-0.283,1.053
			c-0.007,0.028-0.015,0.056-0.022,0.085c-0.087,0.345-0.171,0.696-0.251,1.052c-0.009,0.041-0.019,0.082-0.028,0.123
			c-0.077,0.345-0.15,0.695-0.219,1.048c-0.011,0.054-0.022,0.107-0.033,0.161c-0.066,0.341-0.128,0.687-0.188,1.036
			c-0.012,0.07-0.025,0.139-0.037,0.209c-0.056,0.335-0.108,0.674-0.158,1.016c-0.013,0.087-0.027,0.172-0.039,0.259
			c-0.046,0.327-0.089,0.659-0.129,0.993c-0.013,0.104-0.027,0.206-0.039,0.311c-0.037,0.319-0.07,0.643-0.102,0.967
			c-0.012,0.121-0.025,0.241-0.037,0.362c-0.029,0.312-0.053,0.629-0.077,0.946c-0.01,0.136-0.022,0.27-0.032,0.407
			c-0.021,0.308-0.037,0.619-0.054,0.93c-0.008,0.148-0.018,0.295-0.024,0.444c-0.014,0.307-0.023,0.618-0.032,0.929
			c-0.005,0.155-0.012,0.309-0.015,0.466c-0.007,0.328-0.009,0.659-0.011,0.99c-0.001,0.141-0.004,0.281-0.004,0.423
			c0,0.473,0.006,0.95,0.017,1.429c0.013,0.581,0.037,1.156,0.066,1.728c0.007,0.138,0.015,0.274,0.023,0.411
			c0.028,0.492,0.062,0.98,0.101,1.465c0.006,0.074,0.011,0.149,0.018,0.223c0.102,1.202,0.238,2.377,0.404,3.524c0,0,0,0,0,0.001
			l0,0c0.828,5.698,2.426,10.649,4.496,14.207c0.026,0.044,0.051,0.089,0.077,0.133c0.253,0.429,0.513,0.837,0.78,1.223
			c0.018,0.026,0.036,0.051,0.055,0.077c1.941,2.78,4.216,4.406,6.619,4.417c2.42,0.011,4.633-1.616,6.453-4.415c0,0,0,0,0,0l0,0
			C271.965,430.499,273.405,426.441,274.24,421.644z"/>
        <path style="fill:#263238;stroke:#263238;stroke-linecap:round;stroke-linejoin:round;stroke-miterlimit:10;" d="M647.535,419.865
			c-0.903-21.768-15.465-39.451-32.525-39.494h-18.494v0c-17.06-0.044-30.157,17.568-29.254,39.336
			c0.903,21.768,15.465,39.451,32.525,39.494l0,0h18.495C635.34,459.245,648.438,441.633,647.535,419.865z"/>
        <path style="fill:#e44d39;stroke:#263238;stroke-linecap:round;stroke-linejoin:round;stroke-miterlimit:10;" d="M654.876,405.906
			c0,0-0.689-13.776-2.411-18.597c-1.722-4.821-6.888-12.054-6.888-12.054s-5.166-12.054-13.775-19.63
			c-8.61-7.577-22.73-15.153-26.174-16.875c-3.444-1.722-7.921-2.755-14.464-7.232c-6.543-4.477-47.181-32.717-59.923-40.293
			c-12.742-7.577-40.294-11.365-45.804-12.398c-5.51-1.033-68.878-5.51-90.918-5.51c-22.041,0-67.5,1.033-92.641,10.676
			c0,0-8.265,2.411-9.298,4.821c-1.033,2.411-1.722,4.133-1.722,4.133l-24.796,36.161c0,0-8.954-0.689-11.709,6.888
			c-2.755,7.577-1.722,17.908-1.722,17.908s-6.543,16.186-6.888,28.24c-0.345,12.053,1.033,21.008,1.033,21.008
			s-1.722-22.041,3.444-28.929c5.166-6.888,15.842-1.722,19.975,10.676c4.133,12.398,8.954,35.472,8.954,35.472l109.171,22.385
			c0,0-5.51-28.929,1.722-45.459c7.232-16.531,40.982-15.497,47.181,14.464c6.199,29.962,4.133,35.472,4.133,35.472
			s23.074,4.821,93.329,3.788c70.255-1.033,108.827-9.299,119.158-12.054c0,0,2.411-12.742,3.099-20.319
			C657.631,411.072,654.876,405.906,654.876,405.906z M404.506,336.684c-0.689,1.722-2.066,2.755-2.066,2.755
			c-2.755,2.755-10.332,0-10.332,0s-32.77-5.208-62.069-9.778c1.768-18.815,10.492-36.96,15.837-46.55
			c5.56,0.453,17.57,1.964,31.423,11.902C393.141,306.378,405.195,334.962,404.506,336.684z"/>
        <path style="fill:#B2B2B2;stroke:#263238;stroke-linecap:round;stroke-linejoin:round;stroke-miterlimit:10;" d="M342.753,318.749
			c0,0-13.448,15.689-13.946,17.432c-0.498,1.743,0.747,7.471,5.479,7.72c4.732,0.249,30.853-9.195,30.853-9.195l-15.976-2.138
			l1.31-3.858"/>

        <line style="fill:none;stroke:#263238;stroke-linecap:round;stroke-linejoin:round;stroke-miterlimit:10;"
              x1="335.531" y1="331.449" x2="349.163" y2="332.567"/>
        <path style="opacity:0.15;" d="M656.943,418.648c0.689-7.577-2.066-12.742-2.066-12.742s-0.221-4.408-0.724-9.109
			c-43.091,12.715-120.196,13.573-141.699,11.675c-24.701-2.18-68.529-8.155-70.472-15.257
			c-1.943-7.102-18.889-23.248-30.514-27.607c-9.964-3.737-125.607-19.749-158.444-24.247c-1.007,6.325-0.393,12.543-0.393,12.543
			s-6.543,16.186-6.888,28.24c-0.344,12.053,1.033,21.008,1.033,21.008s-1.722-22.041,3.444-28.929
			c5.166-6.888,15.842-1.722,19.975,10.676c4.133,12.398,8.954,35.472,8.954,35.472l109.171,22.385c0,0-5.51-28.929,1.722-45.459
			c7.232-16.531,40.982-15.498,47.181,14.464c6.199,29.962,4.133,35.472,4.133,35.472s23.074,4.822,93.329,3.788
			c70.255-1.033,108.827-9.299,119.158-12.054C653.843,438.967,656.254,426.224,656.943,418.648z"/>
        <path style="fill:#263238;stroke:#263238;stroke-linecap:round;stroke-linejoin:round;stroke-miterlimit:10;" d="M384.108,331.754
			c1.47-7.595,6.37-21.806,6.37-21.806s8.161,11.556,11.869,19.647c3.708,8.091,0,11.125-3.371,11.799
			c-3.371,0.674-16.519-3.708-16.519-3.708L384.108,331.754"/>
        <path style="fill:#757575;stroke:#263238;stroke-linecap:round;stroke-linejoin:round;stroke-miterlimit:10;" d="M336.442,283.079
			c-6.732,0.387-16.203,1.384-23.543,2.979c-7.921,1.722-10.676,2.066-12.054,3.444c-1.378,1.378-14.809,18.253-19.63,30.306
			c0,0,0.689,3.1,3.788,3.1c1.127,0,15.592,2.185,33.544,4.966C321.551,317.188,327.59,298.359,336.442,283.079z"/>
        <path style="fill:none;stroke:#263238;stroke-linecap:round;stroke-linejoin:round;stroke-miterlimit:10;" d="M330.349,345.907
			l-9.796-1.769c0,0-2.398,0.762-1.672,3.161c0.726,2.398,2.023,2.136,2.023,2.136l8.157,1.313c0,0,1.941,0.21,2.356-1.725
			C331.833,347.088,332.383,346.838,330.349,345.907z"/>
        <path style="fill:none;stroke:#263238;stroke-linecap:round;stroke-linejoin:round;stroke-miterlimit:10;" d="M280.818,337.372
			l-7.48-1.437c0,0-1.831,0.619-1.276,2.567c0.554,1.948,1.545,1.735,1.545,1.735l6.228,1.067c0,0,1.482,0.17,1.799-1.402
			C281.951,338.331,282.371,338.128,280.818,337.372z"/>
        <path style="fill:none;stroke:#263238;stroke-linecap:round;stroke-linejoin:round;stroke-miterlimit:10;" d="M340.74,282.016
			c0,0-13.966,25.972-16.416,47.533"/>
        <path style="fill:none;stroke:#263238;stroke-linecap:round;stroke-linejoin:round;stroke-miterlimit:10;" d="M321.138,333.96
			c0,0-6.37,10.781-6.615,14.456c-0.245,3.675,0.49,47.778,1.715,55.864"/>
        <path style="fill:none;stroke:#263238;stroke-linecap:round;stroke-linejoin:round;stroke-miterlimit:10;" d="M388.518,349.396
			c0,0-5.39,17.886-5.635,31.362c-0.245,13.476-0.49,38.713-0.49,38.713"/>
        <path style="fill:none;stroke:#263238;stroke-linecap:round;stroke-linejoin:round;stroke-miterlimit:10;" d="M280.465,324.649
			c0,0-11.516,10.536-12.496,13.966c-0.98,3.43,0.245,32.832,0.245,32.832"/>
        <path style="fill:none;stroke:#263238;stroke-linecap:round;stroke-linejoin:round;stroke-miterlimit:10;" d="M282.671,404.77
			c0,0,1.715,4.9,5.39,6.125c3.675,1.225,92.861,18.376,92.861,18.376"/>
        <path style="fill:#263238;stroke:#263238;stroke-linecap:round;stroke-linejoin:round;stroke-miterlimit:10;" d="M541.037,420.318
			c0,0,68.297,0.94,93.674-6.892c0,0-2.506,16.918-7.206,20.364c-4.699,3.446-38.854,6.966-55.453,7.519
			c-18.797,0.627-29.449-1.253-29.449-1.253L541.037,420.318z"/>
        <path style="fill:#263238;stroke:#263238;stroke-linecap:round;stroke-linejoin:round;stroke-miterlimit:10;" d="M528.818,377.71
			l6.892,14.098c0,0,38.535,0.94,42.921,1.253c4.386,0.313,9.086,2.506,14.098,0c5.013-2.506,26.63-5.326,29.136-5.326
			c2.506,0,5.639,2.193,5.639,2.193s-5.639-14.098-7.832-15.351c-2.193-1.253-4.386-0.94-5.326-0.94
			C613.407,373.638,567.667,370.191,528.818,377.71z"/>
        <path style="fill:#FFFFFF;stroke:#263238;stroke-linecap:round;stroke-linejoin:round;stroke-miterlimit:10;" d="M456.19,349.569
			c0,0-16.384-2.521-22.686-0.315s-3.151,10.713,7.562,18.59c10.713,7.877,19.535,15.439,30.563,16.699
			c11.028,1.26,29.933,5.357,30.878,1.891c0.945-3.466-2.521-16.069-15.124-25.207C474.78,352.09,456.19,349.569,456.19,349.569z"/>
        <path style="fill:#FFFFFF;stroke:#263238;stroke-linecap:round;stroke-linejoin:round;stroke-miterlimit:10;" d="M587.892,331.607
			l-3.145,0.951c0,0-5.845,0.176-15.199,0.434c-8.016,0.235-18.602,0.528-30.304,0.833c-16.15,0.434-34.411,0.88-50.901,1.232
			c-25.21,0.528-46.312,0.798-49.481,0.329c-5.446-0.798-11.537-2.77-17.194-7.723c-3.181-2.77-6.232-6.49-8.955-11.49
			c-7.57-13.873-26.783-30.879-26.783-30.879c30.245-3.474,102.401-2.206,110.593-1.89c2.042,0.07,4.659,0.387,7.57,0.916
			c8.744,1.549,20.152,4.988,26.771,9.483c1.174,0.798,3.063,2.054,5.434,3.638c5.54,3.697,13.755,9.143,22.006,14.612
			c4.976,3.286,9.964,6.584,14.389,9.518C581.378,327.3,587.892,331.607,587.892,331.607z"/>
        <g>
			<path style="fill:#263238;stroke:#263238;stroke-linecap:round;stroke-linejoin:round;stroke-miterlimit:10;"
                  d="
				M530.864,293.804c1.174,0.798,3.063,2.054,5.434,3.638l-47.955,37.616c-25.21,0.528-46.312,0.798-49.481,0.329
				c-5.446-0.798-11.537-2.77-17.194-7.723l82.426-43.343C512.837,285.87,524.245,289.309,530.864,293.804z"/>
            <path style="fill:#263238;stroke:#263238;stroke-linecap:round;stroke-linejoin:round;stroke-miterlimit:10;"
                  d="
				M572.693,321.573l-3.145,11.42c-8.016,0.235-18.602,0.528-30.304,0.833l19.06-21.771
				C563.28,315.34,568.268,318.638,572.693,321.573z"/>
		</g>
        <path style="fill:none;stroke:#263238;stroke-linecap:round;stroke-linejoin:round;stroke-miterlimit:10;" d="M519.977,368.283
			c1.92,1.943,3.774,4.001,5.531,6.177"/>
        <path style="fill:none;stroke:#263238;stroke-linecap:round;stroke-linejoin:round;stroke-miterlimit:10;" d="M473.52,340.431
			c0,0,23.848,7.014,43.147,24.668"/>
        <path style="fill:none;stroke:#263238;stroke-linecap:round;stroke-linejoin:round;stroke-miterlimit:10;" d="M626.265,373.904
			c2.382,4.489,4.285,9.496,5.427,15.05"/>
        <path style="fill:none;stroke:#263238;stroke-linecap:round;stroke-linejoin:round;stroke-miterlimit:10;" d="M589.786,341.692
			c0,0,21.126,8.184,33.794,27.658"/>
        <path style="fill:#FFFFFF;stroke:#263238;stroke-linecap:round;stroke-linejoin:round;stroke-miterlimit:10;" d="M492.425,426.449
			c0,3.654-3.527,6.617-7.877,6.617c-4.35,0-7.877-2.962-7.877-6.617c0-3.654,3.527-6.617,7.877-6.617
			C488.898,419.833,492.425,422.795,492.425,426.449z"/>
        <path style="fill:#FFFFFF;stroke:#263238;stroke-linecap:round;stroke-linejoin:round;stroke-miterlimit:10;" d="M655.56,415.698
			c-0.666,3.15-2.793,5.367-4.751,4.953c-1.958-0.414-3.005-3.303-2.339-6.452c0.666-3.15,2.793-5.368,4.751-4.954
			C655.178,409.66,656.226,412.548,655.56,415.698z"/>
        <g>
			<path style="fill:#263238;stroke:#263238;stroke-linecap:round;stroke-linejoin:round;stroke-miterlimit:10;"
                  d="
				M387.136,337.876c0,0-5.496-9.257-8.968-9.836c-3.471-0.579-18.225-1.157-21.408,0.868c-3.182,2.025-2.314,8.679-1.157,10.414
				c1.157,1.736,5.786,2.604,9.836,2.314c4.05-0.289,17.647,0.868,17.647,0.868s8.1,5.786,10.993,5.207
				c2.893-0.579,6.654-6.943,4.05-10.414C395.526,333.826,391.476,334.694,387.136,337.876z"/>

            <line style="fill:none;stroke:#263238;stroke-linecap:round;stroke-linejoin:round;stroke-miterlimit:10;"
                  x1="387.136" y1="337.876" x2="396.683" y2="339.901"/>
		</g>
        <path style="fill:none;stroke:#263238;stroke-linecap:round;stroke-linejoin:round;stroke-miterlimit:10;" d="M301.878,283.992
			c0,0-8.265,2.411-9.298,4.821c-1.033,2.411-1.722,4.133-1.722,4.133l-24.796,36.161c0,0-8.954-0.689-11.709,6.888
			c-2.755,7.577-1.722,17.908-1.722,17.908s-6.543,16.186-6.888,28.24c-0.345,12.053,1.033,21.008,1.033,21.008
			s-1.722-22.041,3.444-28.929c5.166-6.888,15.842-1.722,19.975,10.676c4.133,12.398,8.954,35.472,8.954,35.472l109.171,22.385
			c0,0-5.51-28.929,1.722-45.459c7.232-16.531,40.982-15.498,47.181,14.464c6.199,29.962,4.133,35.472,4.133,35.472
			s23.074,4.822,93.329,3.788c70.255-1.033,108.827-9.299,119.158-12.053c0,0,2.411-12.743,3.099-20.319
			c0.689-7.577-2.066-12.742-2.066-12.742s-0.689-13.776-2.411-18.597c-1.722-4.821-6.888-12.054-6.888-12.054
			s-5.166-12.053-13.775-19.63c-8.61-7.577-22.73-15.153-26.174-16.875c-3.444-1.722-7.921-2.755-14.464-7.232
			c-6.543-4.477-47.181-32.717-59.923-40.293c-12.742-7.577-40.294-11.365-45.804-12.398c-5.51-1.033-68.878-5.51-90.918-5.51
			C372.478,273.316,327.019,274.349,301.878,283.992z"/>
        <path style="fill:#FFFFFF;stroke:#263238;stroke-linecap:round;stroke-linejoin:round;stroke-miterlimit:10;" d="M619.404,346.733
			c0,0-6.932,2.521-5.041,5.041c1.891,2.521,12.288,9.137,17.015,17.33c4.726,8.192,5.672,12.288,7.877,12.288
			c2.206,0,6.976-4.082,6.324-6.137C644.925,373.2,641.46,354.61,619.404,346.733z"/>
        <g>
			<path style="fill:#263238;stroke:#263238;stroke-linecap:round;stroke-linejoin:round;stroke-miterlimit:10;"
                  d="
				M272.713,409.865c-0.072-3.387-0.42-6.613-0.986-9.547l-4.659,5.678c0.201,1.203,0.329,2.495,0.358,3.848
				c0.004,0.194,0,0.383,0,0.574l5.291,1.676C272.728,411.359,272.729,410.617,272.713,409.865z"/>
            <path style="fill:#263238;stroke:#263238;stroke-linecap:round;stroke-linejoin:round;stroke-miterlimit:10;"
                  d="
				M264.457,399.449c0.484,0.515,0.928,1.224,1.32,2.082l3.28-9.819c-1.139-2.424-2.486-4.256-3.952-5.301L264.457,399.449z"/>
            <path style="fill:#263238;stroke:#263238;stroke-linecap:round;stroke-linejoin:round;stroke-miterlimit:10;"
                  d="M266.76,416.237
				c-0.237,0.926-0.532,1.75-0.871,2.45l2.694,11.728c1.291-2.105,2.346-4.981,3.068-8.377L266.76,416.237z"/>
            <path style="fill:#263238;stroke:#263238;stroke-linecap:round;stroke-linejoin:round;stroke-miterlimit:10;"
                  d="
				M258.834,403.737l-4.75-6.429c-0.697,3.158-1.101,6.78-1.135,10.656l5.311,0.295
				C258.315,406.611,258.516,405.079,258.834,403.737z"/>
            <path style="fill:#263238;stroke:#263238;stroke-linecap:round;stroke-linejoin:round;stroke-miterlimit:10;"
                  d="M260.45,399.828
				c0.388-0.529,0.815-0.914,1.269-1.133l-0.777-13.035c-1.681,0.579-3.201,2.215-4.454,4.636L260.45,399.828z"/>
            <path style="fill:#263238;stroke:#263238;stroke-linecap:round;stroke-linejoin:round;stroke-miterlimit:10;"
                  d="
				M263.579,421.097c-0.165,0.044-0.333,0.071-0.504,0.07c-0.484-0.002-0.955-0.192-1.401-0.537l-2.604,11.233
				c1.315,1.51,2.767,2.36,4.281,2.366c0.413,0.001,0.819-0.067,1.216-0.187L263.579,421.097z"/>
            <path style="fill:#263238;stroke:#263238;stroke-linecap:round;stroke-linejoin:round;stroke-miterlimit:10;"
                  d="
				M258.795,414.673l-5.253,2.286c0.543,3.736,1.431,7.088,2.563,9.826l3.371-9.677C259.21,416.371,258.983,415.551,258.795,414.673
				z"/>
		</g>
        <g>
			<path style="fill:#FFFFFF;stroke:#263238;stroke-linecap:round;stroke-linejoin:round;stroke-miterlimit:10;"
                  d="
				M247.555,312.676c0,0,58.142,3.252,63.255,5.382c5.113,2.13,6.391,7.243,6.391,7.243l-72.856-2.556L247.555,312.676z"/>
            <path style="fill:#FFFFFF;stroke:#263238;stroke-linecap:round;stroke-linejoin:round;stroke-miterlimit:10;"
                  d="
				M290.059,284.053c0,0-33.146,24.106-45.714,38.692l-12.782-2.556l35.454-34.014L290.059,284.053z"/>
            <path style="fill:#e44d39;stroke:#263238;stroke-linecap:round;stroke-linejoin:round;stroke-miterlimit:10;"
                  d="
				M324.323,329.549c0,0,6.264-30.557,16.416-47.533c0,0-35.585-4.789-74.356,1.176c-2.253,0.347-37.376,29.754-37.376,29.754
				s-20.502,17.504-20.877,20.877c0,0,12.717,44.286,59.013,74.528l50.276,8.127c0,0-3.366-54.604-2.875-66.382
				C314.841,342.965,324.323,329.549,324.323,329.549z M240.084,318.484c-5.113-1.704,0-6.817,0-6.817l30.341-24.215
				c20.877-3.408,58.705,0.356,58.705,0.356c-2.556,4.687-11.93,37.493-11.93,37.493S245.197,320.189,240.084,318.484z"/>
            <path style="fill:#263238;stroke:#263238;stroke-linecap:round;stroke-linejoin:round;stroke-miterlimit:10;"
                  d="
				M223.891,330.547l-6.429-0.559c0,0-2.516,0.28-2.516,2.516c0,2.236,1.956,2.516,1.956,2.516l12.459,1.127
				c0,0-0.295-3.77,1.662-4.888L223.891,330.547z"/>
            <path style="fill:#e44d39;stroke:#263238;stroke-linecap:round;stroke-linejoin:round;stroke-miterlimit:10;"
                  d="
				M215.254,335.764c0,0,2.048,2.663,4.096,2.663c2.048,0,9.831,0.819,9.831,0.819"/>
		</g>
        <polygon style="fill:#263238;stroke:#263238;stroke-linecap:round;stroke-linejoin:round;stroke-miterlimit:10;"
                 points="
			621.675,289.214 624.15,289.024 634.62,320.813 631.656,321.187 		"/>
        <path style="fill:#FFFFFF;stroke:#263238;stroke-linecap:round;stroke-linejoin:round;stroke-miterlimit:10;" d="M604.633,287.642
			c0,0,3.702-2.019,4.544-2.019c0.841,0,3.871,4.039,3.871,4.039s-4.207,2.356-4.712,2.524c-0.505,0.168-3.366-1.178-3.366-1.178
			s-2.861,2.188-4.207,4.712c-1.346,2.524-6.9,11.78-6.9,11.78s-3.029,4.375-6.227,2.524c-3.197-1.851-4.375-6.227-3.029-8.078
			S604.633,287.642,604.633,287.642z"/>
        <path style="fill:#FFFFFF;stroke:#263238;stroke-linecap:round;stroke-linejoin:round;stroke-miterlimit:10;" d="M601.772,292.354
			c0,0,1.01,1.178,2.019,1.346c1.01,0.168,3.871,0.168,3.871,0.168s3.197-0.337,0.673-1.683c-2.524-1.346-4.544-2.02-4.544-2.02"/>
	</g>
</g>
    <g id="Location_1">
	<g>
		<path style="fill:#FFFFFF;stroke:#263238;stroke-linecap:round;stroke-linejoin:round;stroke-miterlimit:10;" d="M141.036,211.497
			l-13.514,9.824l-12.312-9.531l-0.015-0.01c-5.575-3.968-9.214-10.482-9.214-17.848c0-12.084,9.799-21.878,21.883-21.878
			c12.084,0,21.878,9.794,21.878,21.878C149.742,201.185,146.467,207.513,141.036,211.497z"/>
        <path style="fill:#e44d39;stroke:#263238;stroke-linejoin:round;stroke-miterlimit:10;" d="M108.656,193.788
			c0,4.666,1.663,8.947,4.425,12.284c3.532,4.255,8.86,6.966,14.825,6.966c5.498,0,10.451-2.3,13.962-5.99
			c3.28-3.455,5.287-8.126,5.287-13.259c0-10.631-8.614-19.25-19.25-19.25C117.275,174.538,108.656,183.157,108.656,193.788z"/>
        <path style="fill:#263238;stroke:#263238;stroke-linejoin:round;stroke-miterlimit:10;" d="M127.906,213.037
			c4.751,0,9.094-1.72,12.453-4.569c-0.629-6.508-6.11-11.596-12.783-11.596c-6.49,0-11.842,4.818-12.709,11.07
			C118.297,211.102,122.872,213.037,127.906,213.037z"/>

        <ellipse transform="matrix(0.2898 -0.9571 0.9571 0.2898 -89.5023 255.7529)"
                 style="fill:#263238;stroke:#263238;stroke-linejoin:round;stroke-miterlimit:10;" cx="127.576"
                 cy="188.183" rx="8.483" ry="8.483"/>
	</g>
        <g>
		<path style="fill:#FFFFFF;stroke:#263238;stroke-linecap:round;stroke-linejoin:round;stroke-miterlimit:10;" d="M375.809,272.844
			l-13.514,9.824l-12.312-9.531l-0.015-0.01c-5.575-3.968-9.214-10.482-9.214-17.848c0-12.084,9.799-21.878,21.883-21.878
			s21.878,9.794,21.878,21.878C384.514,262.532,381.24,268.861,375.809,272.844z"/>
            <path style="fill:#e44d39;stroke:#263238;stroke-linejoin:round;stroke-miterlimit:10;" d="M343.429,255.135
			c0,4.666,1.663,8.947,4.425,12.284c3.532,4.255,8.86,6.966,14.825,6.966c5.498,0,10.451-2.3,13.962-5.99
			c3.28-3.455,5.287-8.126,5.287-13.259c0-10.631-8.614-19.25-19.25-19.25C352.047,235.885,343.429,244.504,343.429,255.135z"/>
            <path style="fill:#263238;stroke:#263238;stroke-linejoin:round;stroke-miterlimit:10;" d="M362.678,274.385
			c4.751,0,9.094-1.72,12.453-4.569c-0.629-6.508-6.11-11.596-12.783-11.596c-6.49,0-11.842,4.818-12.709,11.07
			C353.069,272.45,357.645,274.385,362.678,274.385z"/>

            <ellipse transform="matrix(0.2306 -0.9731 0.9731 0.2306 35.9878 544.5748)"
                     style="fill:#263238;stroke:#263238;stroke-linejoin:round;stroke-miterlimit:10;" cx="362.348"
                     cy="249.531" rx="8.483" ry="8.483"/>
	</g>
</g>
    <g id="Character_1">
	<g>
		
			<ellipse
                    style="fill:#263238;stroke:#263238;stroke-linecap:round;stroke-linejoin:round;stroke-miterlimit:10;"
                    cx="132.172" cy="456.612" rx="50.519" ry="4.975"/>
        <g>
			<g>
				<path style="fill:#FFFFFF;stroke:#263238;stroke-linecap:round;stroke-linejoin:round;stroke-miterlimit:10;"
                      d="
					M159.814,429.859l5.2,16.03c0,0,7.682,1.752,9.569,1.523c1.887-0.229,8.802-1.642,8.963-0.321
					c0.16,1.321-2.036,2.162-2.722,2.82c-0.686,0.658-5.485,3.73-7.304,4.525c-1.819,0.795-7.367,2.426-8.997,3.198
					c-1.63,0.772-3.569,2.156-4.833-0.372c-1.264-2.528-1.842-5.714-2.048-7.413s-8.552-15.242-8.552-15.242L159.814,429.859z"/>
                <path style="fill:#e44d39;stroke:#263238;stroke-linecap:round;stroke-linejoin:round;stroke-miterlimit:10;"
                      d="
					M174.583,447.412c-0.335,0.04-0.795,0.015-1.321-0.05l0.44,2.263c0,0-10.051,3.663-15.068,4.924
					c0.283,0.924,0.627,1.856,1.055,2.713c1.264,2.528,3.203,1.144,4.833,0.371c1.63-0.772,7.178-2.403,8.997-3.198
					c1.819-0.795,6.618-3.867,7.304-4.525c0.686-0.658,2.883-1.499,2.723-2.82C183.386,445.77,176.471,447.183,174.583,447.412z"/>
			</g>
            <g>
				<path style="fill:#FFFFFF;stroke:#263238;stroke-linecap:round;stroke-linejoin:round;stroke-miterlimit:10;"
                      d="
					M193.257,274.422c0,0,3.111-0.648,2.787,0.065c-0.324,0.713-2.528,1.231-2.528,1.231s2.398,0.065,1.944,0.583
					c-0.454,0.518-1.75,0.648-1.75,0.648l-1.037,1.037c0,0-0.972,0.907-1.231,1.167c-0.259,0.259-2.333,1.88-2.787,1.037
					c-0.454-0.843,0-2.592,0.454-2.981C189.563,276.82,193.257,274.422,193.257,274.422z"/>
                <path style="fill:#FFFFFF;stroke:#263238;stroke-linecap:round;stroke-linejoin:round;stroke-miterlimit:10;"
                      d="
					M137.127,284.565l16.672,9.094l29.312-10.506c0,0,1.277-1.929,3.15-4.973c1.874-3.044,5.18-4.468,6.624-5.355
					c1.443-0.887,2.677-0.472,2.262,0.419c-0.414,0.891-3.092,1.705-3.643,2.321c-0.551,0.616-3.307,4.38-3.307,4.38
					s4.947-2.454,5.771-2.52c0.823-0.066,1.302,0.553,0.133,1.304c-1.169,0.751-3.162,1.911-3.575,2.458
					c-0.413,0.547-1.378,1.711-2.134,2.257c-0.756,0.546-1.993,1.16-1.993,1.16s-28.337,18.989-29.871,19.756
					s-4.755,0.767-4.755,0.767l-15.34-6.289L137.127,284.565z"/>
                <path style="fill:#e44d39;stroke:#263238;stroke-linecap:round;stroke-linejoin:round;stroke-miterlimit:10;"
                      d="
					M157.729,292.278l-3.93,1.381l-16.672-9.094l-0.695,14.273l15.34,6.289c0,0,3.221,0,4.755-0.767
					c0.352-0.176,2.334-1.371,5.161-3.096L157.729,292.278z"/>
			</g>
            <g>
				<path style="fill:#FFFFFF;stroke:#263238;stroke-linecap:round;stroke-linejoin:round;stroke-miterlimit:10;"
                      d="
					M92.644,426.147l-4.932,11.712c0,0-7.055,6.825-6.965,7.799c0.089,0.973,1.169,3.3,3.168,4.329s5.099,2.709,5.099,2.709
					s4.792,3.141,7.801,3.847c3.01,0.706,6.181,1.917,6.669,0.313c0.488-1.604-5.241-4.89-5.241-4.89s-2.591-4.96-3.076-6.474
					c-0.485-1.515-0.212-4.831-0.212-4.831l9.004-10.122L92.644,426.147z"/>
                <path style="fill:#e44d39;stroke:#263238;stroke-linecap:round;stroke-linejoin:round;stroke-miterlimit:10;"
                      d="
					M98.244,451.966c0,0-1.911-0.056-3.28-0.508c-1.369-0.452-4.521-3.339-7.564-6.929c-1.066-1.257-2.155-2.337-3.125-3.216
					c-1.779,1.851-3.573,3.852-3.528,4.346c0.089,0.973,1.169,3.3,3.169,4.329c2,1.029,5.099,2.709,5.099,2.709
					s4.792,3.141,7.801,3.847c3.01,0.706,6.181,1.917,6.669,0.313C103.973,455.252,98.244,451.966,98.244,451.966z"/>
			</g>
            <polygon
                    style="fill:#FFFFFF;stroke:#263238;stroke-linecap:round;stroke-linejoin:round;stroke-miterlimit:10;"
                    points="
				107.621,352.903 107.559,389.014 89.002,425.384 105.749,435.372 125.825,397.089 130.699,370.212 			"/>
            <path style="fill:#FFFFFF;stroke:#263238;stroke-linecap:round;stroke-linejoin:round;stroke-miterlimit:10;"
                  d="
				M106.467,333.287c0,0-4.231,13.847-3.462,16.924c0.769,3.077,23.992,49.774,23.992,49.774l18.704,38.309l20.771-6.154
				l-17.693-50.003L135.7,351.365v-16.54L106.467,333.287z"/>
            <g>
				<g>
					<polygon
                            style="fill:#FFFFFF;stroke:#263238;stroke-linecap:round;stroke-linejoin:round;stroke-miterlimit:10;"
                            points="
						135.542,266.074 133.67,270.99 128.826,268.458 129.402,263.178 					"/>
                    <path style="fill:#e44d39;stroke:#263238;stroke-linecap:round;stroke-linejoin:round;stroke-miterlimit:10;"
                          d="
						M136.678,272.242c0,0-2.903,0.873-2.595,3.698c0.308,2.826,4.792,13.711,5.893,19.501c1.101,5.791,0.17,7.107,0.365,9.648
						s-0.967,26.2-0.63,30.332c0.337,4.132-1.271,4.429-12.113,4.192c-10.843-0.237-16.985-1.695-20.395-3.642
						c-3.41-1.947-1.826-4.925-0.62-7.313c1.206-2.389,6.191-33.664,8.786-41.572c2.595-7.908,3.073-10.849,7.321-13.693
						c4.248-2.845,4.82-2.31,5.111-3.538c0.292-1.228,0.962-3.046,0.962-3.046L136.678,272.242z"/>
                    <path style="fill:none;stroke:#263238;stroke-linecap:round;stroke-linejoin:round;stroke-miterlimit:10;"
                          d="M127.181,302.649
						c0,0,2.901,3.156,6.91,3.593"/>
                    <path style="fill:none;stroke:#263238;stroke-linecap:round;stroke-linejoin:round;stroke-miterlimit:10;"
                          d="M125.666,313.37
						c0.379,0.498,0.78,0.974,1.205,1.416"/>
                    <path style="fill:none;stroke:#263238;stroke-linecap:round;stroke-linejoin:round;stroke-miterlimit:10;"
                          d="M120.835,303.174
						c0,0,1.203,4.517,3.68,8.515"/>
				</g>
                <g>
					<path style="fill:#FFFFFF;stroke:#263238;stroke-linecap:round;stroke-linejoin:round;stroke-miterlimit:10;"
                          d="
						M145.764,243.895c0,0,1.402,3.104,0.279,6.402c-1.123,3.299-1.414,4.903-0.532,6.203c0.882,1.3,1.258,2.905-0.168,3.697
						c-1.426,0.791-2.309,0.826-2.309,0.826s-2.534,6.2-4.212,6.81c-1.678,0.611-7.139-1.489-8.887-2.646
						c-1.748-1.157-0.323-13.399,0.889-15.489C132.036,247.608,145.764,243.895,145.764,243.895z"/>
                    <path style="fill:none;stroke:#263238;stroke-linecap:round;stroke-linejoin:round;stroke-miterlimit:10;"
                          d="M140.887,261.033
						c-1.876,0.087-2.666-2.006-2.666-2.006s-1.184,3.474,0.262,3.957C139.93,263.466,140.887,261.033,140.887,261.033z"/>
                    <path style="fill:#263238;" d="M143.832,254.096c-0.172,0.845-0.667,1.458-1.106,1.368c-0.439-0.089-0.655-0.847-0.484-1.692
						c0.172-0.845,0.667-1.458,1.106-1.368C143.787,252.493,144.004,253.25,143.832,254.096z"/>
				</g>
                <path style="fill:#263238;stroke:#263238;stroke-linecap:round;stroke-linejoin:round;stroke-miterlimit:10;"
                      d="
					M150.119,237.951c0,0,0.083,4.545-3.31,6.884c-3.394,2.339-12.09,4.887-13.407,5.661c-1.318,0.773-1.302,2.216-1.302,2.216
					s-1.238,7.987-1.225,11.431s3.147,6.262,2.007,8.785c-1.14,2.523-4.783,2.68-7.109,2.731c-2.326,0.051-1.664,3.388-5.761,5.51
					c-4.097,2.122-7.377,1.107-9.573-2.088c-2.195-3.195-1.129-4.816-3.022-5.505c-1.892-0.688-4.978,0.822-7.189-4.483
					c-2.21-5.305-0.203-9.305,1.404-10.349c1.607-1.044,7.665-0.71,7.351-7.329c-0.315-6.619,5.291-17.106,13.593-21.368
					c8.302-4.262,21.653,3.873,23.455,4.687C147.833,235.549,150.176,236.273,150.119,237.951z"/>
                <path style="fill:none;stroke:#263238;stroke-width:2;stroke-linecap:round;stroke-linejoin:round;stroke-miterlimit:10;"
                      d="
					M142.148,326.079c0,0-4.671-35.163-8.476-43.612c-3.804-8.448-7.772-12.504-13.775-5.125c-6.003,7.379-8.82,50.547-8.82,50.547"
                />
                <path style="fill:#e44d39;stroke:#263238;stroke-linecap:round;stroke-linejoin:round;stroke-miterlimit:10;"
                      d="
					M129.749,287.724c0,0-13.901,32.442-15.999,34.523c-2.098,2.081-9.958,6.458-11.967,1.321
					c-2.009-5.137,14.776-43.088,18.505-46.915c3.729-3.827,10.831-2.279,11.002,4.517"/>
                <path style="fill:#FFFFFF;stroke:#263238;stroke-linecap:round;stroke-linejoin:round;stroke-miterlimit:10;"
                      d="
					M130.946,319.029c0,0,2.904-0.628,4.492-2.188c1.588-1.559,3.541-2.134,5.253-1.947c1.712,0.187,4.081,0.13,4.206,1.876
					c0.125,1.746-1.084,2.717-1.585,2.977c-0.501,0.26-0.99,6.193-2.337,6.991c-1.347,0.798-6.555-0.557-8.406-0.917
					c-1.851-0.359-13.554,1.515-19.469,0.87c-5.915-0.645-11.242-0.911-11.316-3.124c-0.074-2.213,2.785-8.202,9.424-8.423
					C117.847,314.923,123.389,318.993,130.946,319.029z"/>
                <path style="fill:#969696;stroke:#263238;stroke-linecap:round;stroke-linejoin:round;stroke-miterlimit:10;"
                      d="
					M142.148,326.079c0,0-2.867,1.735-16.285,2.004c-13.418,0.269-14.785-0.195-14.785-0.195s-3.991,17.211-2.555,19.096
					c2.618,3.436,29.628,2.758,32.268,0.211C143.431,344.648,142.148,326.079,142.148,326.079z"/>
                <path style="fill:none;stroke:#263238;stroke-linecap:round;stroke-linejoin:round;stroke-miterlimit:10;"
                      d="M141.947,251.259
					c0,0,0.915-1.42,2.63-0.68"/>
			</g>
		</g>
	</g>
</g>
</svg>
