<svg version="1.2" xmlns="http://www.w3.org/2000/svg" viewBox="0 0 8000 2000" width="8000" height="2000">
	<title>vecteezy_curvy-road-on-the-hill-asphalt-road-leading-to-the_-ai</title>
	<style>
		.s0 { fill: #c0f3ff } 
		.s1 { fill: #ffffff } 
		.s2 { fill: #efefef } 
		.s3 { fill: #e7f2ce } 
		.s4 { fill: #daedb7 } 
		.s5 { fill: #a4c176 } 
		.s6 { fill: #92a56d } 
		.s7 { fill: #b7d68b } 
		.s8 { fill: #69936e } 
		.s9 { fill: #82a387 } 
		.s10 { fill: #a6c997 } 
		.s11 { fill: #d0e8aa } 
		.s12 { fill: #e4f2c7 } 
		.s13 { fill: #4a556b } 
		.s14 { fill: #48566b } 
		.s15 { fill: #59687f } 
		.s16 { fill: #8496af } 
		.s17 { fill: #9dadc1 } 
		.s18 { opacity: .1;fill: #465426 } 
		.s19 { fill: #87a847 } 
	</style>
	<g id="_Artboards_">
	</g>
	<g id="Layer 5">
		<path id="&lt;Path&gt;" class="s0" d="m7999.5 2000h-8000v-2000h8000z"/>
	</g>
	<g id="Layer 6">
		<path id="&lt;Path&gt;" class="s1" d="m4848.6 1337.4c22.3-28.4 49.2-52.8 76-78.6 21.8-21 21.2-58.6 12.4-84.7-6-17.6-9.5-32.9-12.6-50.4-2.2-12.1-5.9-16.9-17.2-25.4-19.7-14.9-23.2-21.6-24-43.5-0.3-7.8-2.3-18.4 1.4-25.7 5-10.1 22.9-19.1 31.4-27.7 12.2-12.3 19.9-23.1 26.6-37.5 7.8-16.9 13.7-32.2 18.6-49.6 2.9-10.5 1.8-23.6 8.4-32.8 16-22.2 37.2-22.5 64.9-22.8 27.6-0.4 47.9 4.1 74.3 11.6 16.3 4.7 55.5 5.8 66.3 19.3 3 3.9 2.1 9.5 4.5 13.3 3.7 5.7 9.4 5.1 13.3 12.9 4.2 8.5 0.2 18 1.7 26.8 18.5 2.2 34.6 5.5 51.6 11.8 21.4 7.8 57.4 16.8 71.6 30.8 9.9 9.7 7.7 10.4 7.4 22.7-0.1 5.7 1 12.1 0.3 17.8-1.9 16.1-14 28.7-17 44.2-2.3 11.9-2 31.7 2 43.1 11.7 33.1 73.3 10.3 99 1.5 35.8-12.2 78.8-33 79.7-67.5 0.4-14.6 0.3-29.5-0.2-44.1-0.9-28.7-20.7-36.5-47.5-52.8-37.3-22.6-78-49-107.6-78.2-15.3-15-21.2-23.5-16.1-42 7.4-27.5 32-45.7 32-76.1q0-2.1 0.2-4c-8.9-12.4-20.2-24.5-36.6-28.2-20.9-4.7-53.3-1.7-74-1-22.4 0.8-42.5 6.5-64.8 7.4-42.6 1.5-60.6-10.1-96.3-24-23.1-9.1-46.2-9.6-71.6-9.4-21.8 0.1-54.7-4.6-76.5-0.3-16.4 3.3-14.6 9.2-28.4 16.4-21.5 11.1-59.8-1.8-80.6 14.6-14.4 11.4-7.1 22.8-8.3 38-1.4 17.1-7.9 27.7-21.7 40.5-13.4 12.4-23.1 24.5-34.9 37.8-12.5 14.2-30.5 22.8-44.4 36.3-27 26.1-22.7 50.6-22.2 82.3 0.5 32.9 25.1 58.4 24.6 92.2-0.5 31.4-5.6 67.8 0.4 98.9 2.7 14.2 19.6 29.8 17.1 44.5-3.5 20.8-40 20-61.8 22.6-47.1 5.4-75.7 33.1-119.5 45.4-5.9 1.7-15.5-0.3-20.6 2.2-13.2 6.4-6.9 16.1-27.4 19.6-25.6 4.3-62.6-0.7-88.8-0.9-13.4-0.1-32.2-2.8-41.5 7.6-3.8 4.3-0.4 12.3-2.8 17.1-6 11.3-18 16.4-31.5 21.6-22.8 8.6-34.6 11.4-48.5 28.8-2.6 3.2-5.6 6.7-8.9 10.3h543.7c0.5-4.4 1.6-8.6 3.5-12.1 3.5-6.9 15.7-13.9 20.9-20.6z"/>
		<path id="&lt;Path&gt;" class="s1" d="m7990.2 328.6q-13.5-8.5-12.9-22.6c-5.7-17.4-8.1-15.7-24.3-24.4-12.9-6.9-24.1-16.9-39-20-10.6-2.3-13.9 0-24.8-6-13-7.1-16.1-19.7-29.4-25.7-13.1-5.9-45-0.8-58-0.8-47.2 0.1-94.7 1.1-141.9 0.1-12.8-0.3-27.1-2-39.3 2.4-23.7 8.4-12.2 15.3-20.5 28.6-14.1 22.5-65 48-90.7 57.3-8.1 3-18.4 5.5-28.6 8.5-22.3-13.8-40.3-34.7-56.2-51-11.1-11.3-18.5-25-30.2-35.8-12.6-11.7-17.8-8.3-34.5-9.8-43.9-3.9-81.4-36-126-40.5-31.5-3.1-67.1 1-99.2 0.7-34.8-0.3-56.8 9.5-87.8 18.4-31.4 9-61.4 8.1-90.7 22.9-22.8 11.6-39.1 24.6-65.2 34.3-27.4 10.2-76 23.8-88.7 47.5-10.6 19.9-17.9 45.7-17.6 67.4 0.2 21.9 0.9 32.6 14.5 52.6 14.6 21.4 9.7 43.1 10 67 0.2 23.6-2.6 51-21.3 70.5-37.2 38.5-104.9 6.9-153.5 27.4-15.8 6.7-43.5 44.9-55.4 13.7-2.7-7.3 3.1-16.9 1.7-24.6-2.6-13.3-16-26.3-25-37.9-21.7-27.8-52.2-33.2-88.9-42.7-12.8-3.3-16.1-2.3-22.1-13.9-4.1-7.8-1.5-16.7-8.1-23.3-5.7-5.6-18.7-7.8-26.5-12-11.9-6.3-13-9.6-18.4-19.6-9.3-17.4-9.1-33.9-20.3-50.8-11.1-16.7-20.7-27.4-20.4-47.2 0.3-20.8 5.5-48.3-4.4-67.6-13.9-27.1-64.8-50.1-98.5-59.4-17.4-4.9-34.1-2.4-52.9-3.4-38-2-75-6.3-113.2-6.1-56.2 0.4-111.2 5.6-167.1 6.3-50.5 0.7-77.4 25.3-117 46.4-33.9 18.1-65.9 36.6-104.3 48.1-34.7 10.4-55.5 14.9-84 33-16.7 10.6-33 17.2-37.2 35-3.1 12.8 1 30.8 1.1 44.2 0.1 13.8 3.7 29.4-4.7 41.9-6.9 10.5-17.2 14.4-20.2 27.1-4.1 17.6-0.6 41.4 0.2 59.2 0.6 13 6.9 22.9 8.3 35.7 1.6 14.2 9.3 20.5 15.7 32.8 6.9 13.1 10 28 3.5 41.3-7.3 15.2-29.9 22.1-35.3 37.6-7 20.3 18.4 28.4 31.4 41 7.4 7.3 11.7 17.1 16.4 25.1 5 8.6 6.6 13.3 17 19 5.2 2.9 11.3 4.8 16.8 7.5 15.5 7.5 26.1 20.6 42 27.6 10.6 4.7 25.2 5.9 36.6 9.1 21.2 6 39.3 18.5 60.1 24.1 13.5 3.7 27.3 2.3 40.1 8.7 2.9 1.4 3.7 8.5 7.6 10.5 12 6.1 35.7 1.2 48.9 1.2 13.5-0.1 28.4-1.7 41.6 0.8 0.9 2.9 2.1 6.2 3.4 9.8 18.7-5 55.1-17.7 61-29.9q-2.2-7 1-13.8 4.1-4.1 9.9-6.5c3.7-3.6 8.8-6.5 12.3-10.3 8.1-8.6 17.3-16.4 25.7-25.2 12.8-13.6 19.8-38.4 40.8-46.8 2.9-1.2 5.4-2 7.7-2.6-5.8-1.1-11.6-1.4-16.8-0.6-10.9 1.9-16.4 6.6-29.9 7.2-21.9 0.9-25.4-5-44.1-11.6-18.1-6.5-33.4-7.1-48.4-18.2-19.7-14.7-33.4-33.5-39.2-55-7-26.2 1.6-43.1 14.8-65.5 13-22.2 27.4-43.8 40.8-65.8 10.4-17 19.2-40 42.5-46 22.5-5.7 58.9-0.3 82.3-0.3 37.2 0 74.6-5.1 107.9 11.2 15.4 7.5 27.1 19.4 39.6 29.6 16.5 13.3 32.6 21.6 50.1 33.1 41.6 27.3 73.4 67 101.3 102.8 14.5 18.5 25.4 38.6 41.4 56.3 10.6 11.8 12.9 27.4 22.9 38.1 16.2 17.3 46.7 27.5 57 49.9 12.2 26.7-7.5 50.7 19.9 72.5 27.1 21.5 64.6 18.5 79.2 53.9 11.7 28.4-4.3 51.9-12.7 77.8-3.8 11.4-0.9 17-8.5 27.7-10.1 14.2-23.4 27.2-33.6 41.4-11.4 15.9-20.7 30.1-14.1 48.6 2.7 7.6 3.7 18.6 7.5 25.7 19.5 37.1 86.3 41.6 125.4 55.5 40.4 14.3 96.9 30.3 115.6 65.3 7.2 13.6 7.4 18.3 23.5 28.6 25.9 16.4 38.6 41.5 26 67.2h311.3c-7.5-10.1-14.4-19.3-25.7-29.2-8.6-7.5-11.6-10-13-20-1.1-7.3 2.9-15.9 1-23-2.3-8.2-10-12.8-14.8-20.1 8.3-10.6 32.3-5.7 45.6-7.2 20.4-2.4 54.9-6.1 71-16.8 18.9-12.5 11.9-29.1 12.1-47.7 0.4-35.6-10.1-70.1-46.7-91.8-23.9-14.1-51.5-23.9-75.7-37.7-24.3-13.8-53.5-20.5-80.2-30.8-22.4-8.6-41.9-20.5-64.6-28.8-47.1-17.3-76.2-53.7-76.7-95.9-0.3-22.8-5.9-52.1 3.5-73.6 12.1-27.7 43.1-35.5 67.8-53.3 17.5-12.6 24.3-23.6 26.8-41.6 2.1-14.6 3.6-39.8 24.4-45.1 20.9-5.2 100.3-3.9 107.4 13.1 3.6 8.9-1.5 23.9-0.7 33.2 2.8 31.8 32.7 30.2 65.9 33.8 51.5 5.7 40.6 32.5 40.6 64.5 0 21.2-5.4 47-0.6 67.6 5.9 25.3 13.6 14.8 32.8 10.7 19.8-4.2 50.5 0.5 70.6 0.2q14.9-1.5 29.3 1.3 6.2 4.5 8.6 10.9c8.7 2.7 20.2 1.6 29.4 1.2 24.5-1.2 36.9-13.1 59.2-20.1 23.2-7.4 33.4-3.9 32.5-25.9-0.5-13-0.2-26.1 0-39 0.4-24.4 1.7-28.7-25.7-34.2-26.9-5.5-43-14.2-53.9-33.2-9-15.8-23.2-25-38.5-38-18.2-15.4-31.4-10.7-53.9-12.8-18-1.7-26.7-9.4-34.7-23-7.3-12.3-3.3-23.3-7.6-36.2-6.5-19.1-19.8-37.1-23.3-57.4-4.8-27.9 20.8-42.4 25.7-67.8 3.2-16.7-10.4-42.3 1.5-57.1 10.5-13 35.4-14.5 51.6-19.3 15.9-4.7 27.3-12.5 42.8-18.4 14-5.4 24.2-12.8 37.6-16.3 16.7-4.2 46.5-0.6 63.7 1.7 31.2 4.2 62.9 11.2 94.8 11.8 19.4 0.4 39.7-1.7 59.1-0.3 18.8 1.4 48 4.9 61.9 16.1 14.3 11.4 11.4 28.7 11.7 43.1 2.8-16.4 42.7 6.1 57.3 24.1 19.6 24.3 39.6 48.3 60.4 72.4 13.1 15 21.1 29.4 22 48.2 0.6 11-5.6 27.4 0.6 37.7 3.4 5.5 11.3 6.7 15.5 11 2.4 2.5 6.2 12.6 9.7 15.3 5.6 4.2 16.5 8 23.4 10.9 29.4 12.2 56.9 29.8 68.9 56 10.5 23 6.5 56.2 4.5 80.6-1 13.1-8.9 42.9-13.2 52.9-6.2 14.1-15.5 26.8-26.7 38.5-3.5 3.6-15.2 11.6-17.4 16.8-5.9 14.2-0.4 35.7-0.4 50.8 0 23.7-0.4 47.5 0 71.2 0.1 7.3 2.2 16.1 0.3 23.2-5.5 20-43.7 32-62.2 45.7-18.9 14-46 32.6-56.8 52.2-6.3 11.2-4.1 22.9-4 35.1 0.4 36.6-0.2 73.2-0.1 109.8h248.4c0-17.6 0-35.1 0-52.6v-983.5c6.4 0 4.4-3-5.6-5.4z"/>
		<path id="&lt;Path&gt;" class="s2" d="m7747.5 1260.3c-0.1-12.2-2.3-23.9 4-35.1 10.8-19.6 37.9-38.2 56.8-52.2 18.5-13.7 56.7-25.7 62.2-45.7 1.9-7.1-0.2-15.9-0.3-23.2-0.4-23.7 0-47.5 0-71.2 0-15.1-5.5-36.6 0.4-50.8 2.2-5.2 13.9-13.2 17.4-16.8 11.2-11.7 20.5-24.4 26.7-38.5 4.3-10 12.2-39.8 13.2-52.9 2-24.4 6-57.6-4.5-80.6-12-26.2-39.5-43.8-68.9-56-6.9-2.9-17.8-6.7-23.4-10.9-3.5-2.7-7.3-12.8-9.7-15.3-4.2-4.3-12.1-5.5-15.5-11-6.2-10.3 0-26.7-0.6-37.7-0.9-18.8-8.9-33.2-22-48.2-20.8-24.1-40.8-48.1-60.4-72.4-14.6-18-54.5-40.5-57.3-24.1-0.3-14.4 2.6-31.7-11.7-43.1-13.9-11.2-43.1-14.7-61.9-16.1-19.4-1.4-39.7 0.7-59.1 0.3-31.9-0.6-63.6-7.6-94.8-11.8-17.2-2.3-47-5.9-63.7-1.7-13.4 3.5-23.6 10.9-37.6 16.3-15.5 5.9-26.9 13.7-42.8 18.4-16.2 4.8-41.1 6.3-51.6 19.3-11.9 14.8 1.7 40.4-1.5 57.1-4.9 25.4-30.5 39.9-25.7 67.8 3.5 20.3 16.8 38.3 23.3 57.4 4.3 12.9 0.3 23.9 7.6 36.2 8 13.6 16.7 21.3 34.7 23 22.5 2.1 35.7-2.6 53.9 12.8 15.3 13 29.5 22.2 38.5 38 10.9 19 27 27.7 53.9 33.2 27.4 5.5 26.1 9.8 25.7 34.2-0.2 12.9-0.5 26 0 39 0.9 22-9.3 18.5-32.5 25.9-22.3 7-34.7 18.9-59.2 20.1-9.2 0.4-20.7 1.5-29.4-1.2q-2.4-6.4-8.6-10.9-14.4-2.8-29.3-1.3c-20.1 0.3-50.8-4.4-70.6-0.2-19.2 4.1-26.9 14.6-32.8-10.7-4.8-20.6 0.6-46.4 0.6-67.6 0-32 10.9-58.8-40.6-64.5-33.2-3.6-63.1-2-65.9-33.8-0.8-9.3 4.3-24.3 0.7-33.2-7.1-17-86.5-18.3-107.4-13.1-20.8 5.3-22.3 30.5-24.4 45.1-2.5 18-9.3 29-26.8 41.6-24.7 17.8-55.7 25.6-67.8 53.3-9.4 21.5-3.8 50.8-3.5 73.6 0.5 42.2 29.6 78.6 76.7 95.9 22.7 8.3 42.2 20.2 64.6 28.8 26.7 10.3 55.9 17 80.2 30.8 24.2 13.8 51.8 23.6 75.7 37.7 36.6 21.7 47.1 56.2 46.7 91.8-0.2 18.6 6.8 35.2-12.1 47.7-16.1 10.7-50.6 14.4-71 16.8-13.3 1.5-37.3-3.4-45.6 7.2 4.8 7.3 12.5 11.9 14.8 20.1 1.9 7.1-2.1 15.7-1 23 1.4 10 4.4 12.5 13 20 11.3 9.9 18.2 19.1 25.7 29.2h624.4c-0.1-36.6 0.5-73.2 0.1-109.8z"/>
		<path id="&lt;Path&gt;" class="s2" d="m6119 681.6c0.2 9.7-5.2 17.4-8.3 26.4-3.8 11.3-4.6 10.7-14.3 19.6-15.5 14.2-20.1 9.1-35.1 13.1 12.5 2.4 25.1 8.2 33.5 13.1 6 3.4 25.2 23.4 24.2-72.2z"/>
		<path id="&lt;Path&gt;" class="s2" d="m6785.7 1302.9c-16.1-10.3-16.3-15-23.5-28.6-18.7-35-75.2-51-115.6-65.3-39.1-13.9-105.9-18.4-125.4-55.5-3.8-7.1-4.8-18.1-7.5-25.7-6.6-18.5 2.7-32.7 14.1-48.6 10.2-14.2 23.5-27.2 33.6-41.4 7.6-10.7 4.7-16.3 8.5-27.7 8.4-25.9 24.4-49.4 12.7-77.8-14.6-35.4-52.1-32.4-79.2-53.9-27.4-21.8-7.7-45.8-19.9-72.5-10.3-22.4-40.8-32.6-57-49.9-10-10.7-12.3-26.3-22.9-38.1-16-17.7-26.9-37.8-41.4-56.3-27.9-35.8-59.7-75.5-101.3-102.8-17.5-11.5-33.6-19.8-50.1-33.1-12.5-10.2-24.2-22.1-39.6-29.6-33.3-16.3-70.7-11.2-107.9-11.2-23.4 0-59.8-5.4-82.3 0.3-23.3 6-32.1 29-42.5 46-13.4 22-27.8 43.6-40.8 65.8-13.2 22.4-21.8 39.3-14.8 65.5 5.8 21.5 19.5 40.3 39.2 55 15 11.1 30.3 11.7 48.4 18.2 18.7 6.6 22.2 12.5 44.1 11.6 13.5-0.6 19-5.3 29.9-7.2 5.2-0.8 11-0.5 16.8 0.6 15-4 19.6 1.1 35.1-13.1 9.7-8.9 10.5-8.3 14.3-19.6 3.1-9 8.5-16.7 8.3-26.4 1 95.6-18.2 75.6-24.2 72.2-8.4-4.9-21-10.7-33.5-13.1-2.3 0.6-4.8 1.4-7.7 2.6-21 8.4-28 33.2-40.8 46.8-8.4 8.8-17.6 16.6-25.7 25.2-3.5 3.8-8.6 6.7-12.3 10.3q-5.8 2.4-9.9 6.5-3.2 6.8-1 13.8c-5.9 12.2-42.3 24.9-61 29.9 6.3 18.6 14 44.8 4.4 58.2-11 15.4-61.9 14.6-80.8 17.2-23 3.2-41.9 6.3-65.6 5.7-42.8-1.1-79.4-20.2-122.3-9.3-15 3.8-28.6 13.5-42.3 14.5-23.4 1.8-47.6-19-59.4-32.5-8.9-10.1-16.7-31.3-27.7-39.1-11-7.9-26.1-2.7-39.4-4.2-24.7-2.7-42.8-16.1-61-28.8-20.3-14-22.1-16.3-23.1-34.4-1.2-20.2-13-38.6-24.5-56.3-3.4-5.2-7.1-11.1-11.2-17q-0.2 1.9-0.2 4c0 30.4-24.6 48.6-32 76.1-5.1 18.5 0.8 27 16.1 42 29.6 29.2 70.3 55.6 107.6 78.2 26.8 16.3 46.6 24.1 47.5 52.8 0.5 14.6 0.6 29.5 0.2 44.1-0.9 34.5-43.9 55.3-79.7 67.5-25.7 8.8-87.3 31.6-99-1.5-4-11.4-4.3-31.2-2-43.1 3-15.5 15.1-28.1 17-44.2 0.7-5.7-0.4-12.1-0.3-17.8 0.3-12.3 2.5-13-7.4-22.7-14.2-14-50.2-23-71.6-30.8-17-6.3-33.1-9.6-51.6-11.8-1.5-8.8 2.5-18.3-1.7-26.8-3.9-7.8-9.6-7.2-13.3-12.9-2.4-3.8-1.5-9.4-4.5-13.3-10.8-13.5-50-14.6-66.3-19.3-26.4-7.5-46.7-12-74.3-11.6-27.7 0.3-48.9 0.6-64.9 22.8-6.6 9.2-5.5 22.3-8.4 32.8-4.9 17.4-10.8 32.7-18.6 49.6-6.7 14.4-14.4 25.2-26.6 37.5-8.5 8.6-26.4 17.6-31.4 27.7-3.7 7.3-1.7 17.9-1.4 25.7 0.8 21.9 4.3 28.6 24 43.5 11.3 8.5 15 13.3 17.2 25.4 3.1 17.5 6.6 32.8 12.6 50.4 8.8 26.1 9.4 63.7-12.4 84.7-26.8 25.8-53.7 50.2-76 78.6-5.2 6.7-17.4 13.7-20.9 20.6-1.9 3.5-3 7.7-3.5 12.1h1987.5c12.6-25.7-0.1-50.8-26-67.2z"/>
		<path id="&lt;Path&gt;" class="s2" d="m1684.1 886.7c-6.6-5.3-26.6-8.8-34.9-10.7-26-6-51.6-5.9-77.3-14.7-36.1-12.5-62.2-12.6-99.7-12.6-29.3 0-68.3 6.6-95.7-6.3-14.6-6.9-24.2-17.8-41-20.5-9-1.4-24.2 3.3-31.9-1.8-14.9-9.8-11.1-38.2-11-52.8 0.2-15.1 4.8-39.1-1.3-53.4-5.2-12.1-16.5-14.2-23.9-23.8-8.5-10.9-11.1-25.9-21-37-7.8-8.7-17.9-18.8-26.7-26.4-42.1-36.4-101.4-32.6-154.4-32.6-31.8 0-63.6 0.5-95.4-0.4-21.5-0.6-44.4-3.5-50.3 21.9-2 8.7 0 19.6 0.2 28.5 0.3 21.2-0.1 42.5-0.1 63.7 0 16.3 6.1 44.6 0.7 59.5-9 24.9-42.6 13.6-46.3 45.1-4 33.6-22 37-54.7 36.4-27.1-0.4-54.2 0.1-81.2-0.2-18.5-0.2-63.9-7.5-73.8 13-5.4 11 6.1 24.7-4.1 36-9.1 10-25.1 5.9-38 5.7-43.1-0.6-121.2 17.2-130.4-40.8-4.1-25.7 8.3-47.5 9.8-72.1 1.4-24.9 8.7-46.2 37.8-51.5 28.6-5.1 62.2 4.1 72.1-35.9 7.8-31.8-22.8-29.8-40-44.7-16.7-14.6-23.9-21-45.2-29.8-14.6-6.1-23.6-16.2-36.1-23.5-25.4-14.8-56.3-10.9-84.4-10.9-14.5 0-68.3-7.1-76.5 5.3-10.7 16.2 16.1 35.6 7.8 50.6-5 9.1-27.6 10.5-36.4 8.6-15.6-3.4-28.5-18.8-43-26.3-9.3-4.9-19.3-8-29.2-10.9-17.3-5.1-35.4-14.8-50.2-27.2-13.1-11-21.1-28.8-37.1-35.4-28.6-12-75.8 1.9-99.6-18.2-18.7-15.7-23-45.4-42.2-62.2q0 0 0 0v559.7l38.1 38c70.8 0 148.2-2.3 217.5-16.2 19.9-3.9 39.1-0.2 59-1.6 21.7-1.6 41.9-9.3 64.1-9.8 30.8-0.8 57.1-4.4 87-8.8 29.5-4.3 54.6-9 86-9.1 40.3 0 80.6 0 120.9 0q127 0 253.9 0c51 0 102-0.2 152.9 0 49.4 0.3 96.6-9.5 145.9-9.1 92.3 0.7 184.7 0 277 0 60.7 0 121.4 0.5 182.2 0.8 0.1-22.6-0.4-44 4.2-65.2 4-18.1 13.6-56.1-4.1-70.4z"/>
		<path id="&lt;Path&gt;" class="s1" d="m2720 982.9c-13.3-6.1-27.5-10.8-40.4-16.6-15.7-7-23.3-22.1-40-27.1-12.9-3.8-26.5 2.1-40.3-4.8-7.4-3.7-12.3-9.7-19.9-12.4-11.2-3.8-28.8-8.2-40.8-10.1-15.8-2.5-18-1.9-31.1-8.4-20.1-9.9-47.6-13.2-65.1-27.2-8.8-7.1-16-19.3-22.3-27.5-22-28.6-40.6-31.1-78.7-37.2-37.3-5.9-74.1-24-111.5-26.7-16.6-1.2-42.7-4.5-58.2 0.9-10.8 3.7-17.6 17.5-28.6 21.7-17.6 6.6-52-8.9-68.8-20.2-8.8-5.9-15.6-13.6-23-21.3-16-16.8-16.4-14.3-36.7-17.1-17.1-2.3-27-5.1-38.3-20-13.1-17.4-5.7-37.1-17.1-53.8-11.2-16.6-24.7-11.1-41.7-18-13.2-5.4-25.7-19.7-39.6-26.7-24.4-12.4-29.1-26.8-57.3-27.2-67.6-0.9-135.4-1.2-201.4 8.9-27 4.1-26.9 34.7-53.8 45.8-12.1 5.1-24.8 5.2-36.5 8.5-22.2 6.4-11.5 11.1-17.8 28.2-5.4 14.9-15.7 18-31.7 18.5-22.4 0.6-26.6-9.2-43.3-19.3-29.5-17.8-76.3-24.8-62.4-72.8 6.3-21.9 24.8-14.4 42.1-23 12.6-6.3 20.3-15.5 23-28.7 1.7-8.5 1.7-30.7-0.2-39.3-2.1-9.9-10.6-13.8-11.1-25.3-17.1-2-31.2-7-47.8-12.4-16.8-5.6-44.1-18-59.6-27.3-22.2-13.4-40.8-20.2-66.3-28-27.3-8.4-54.4-21.5-81.6-28.9-9.8-2.7-20.3-2.7-29.5-5.5-11.9-3.7-18.8-14.4-31.9-17.3-21.9-4.7-34.2 1.6-54.4-11.5-21.5-13.9-40.6-16.9-63.9-27.5-19-8.7-50.3-26.5-71.2-23.9-8.1 22.6-37.4 19.9-56.1 30.4q-6.8 10.4-18.2 14.9-9.3-0.8-18.7-1.5c-7.1 1.5-10.4 7.1-17.2 9.7-25.5 9.4-39.5 21.7-57.6 43.6-16.8 20.6-27.5 29.8-53.4 29-21.9-0.6-46.1-2.9-67.7 0.4-22.8 3.6-27.4 5.5-33.3 26.5-8.3 29.2 0.2 54.1-36.1 55.2-27 0.8-46-0.2-70.5-11.5-19.9-9.3-40.4-17.1-59.7-25-15.2-6.2-10.4-3.6-21.4-20.3-12-17.9-22.2-23.5-42.2-25.7-23.7-2.7-46.2 1.9-68.1 7.5-19.4 5-16-0.6-28.9-7.1-12.3-6.1-15.8-7.1-30.5-11.2-26.8-7.6-18.8-21.5-28.9-43.3-10.7-23.3-6.3-53-28.4-65.9q-3.1-1.8-6.3-3.4c-46.1-23.8-122.2-33-173-21.1q-2.9 0.7-5.6 1.5v173.3q0 0 0 0c19.2 16.8 23.5 46.5 42.2 62.2 23.8 20.1 71 6.2 99.6 18.2 16 6.6 24 24.4 37.1 35.4 14.8 12.4 32.9 22.1 50.2 27.2 9.9 2.9 19.9 6 29.2 10.9 14.5 7.5 27.4 22.9 43 26.3 8.8 1.9 31.4 0.5 36.4-8.6 8.3-15-18.5-34.4-7.8-50.6 8.2-12.4 62-5.3 76.5-5.3 28.1 0 59-3.9 84.4 10.9 12.5 7.3 21.5 17.4 36.1 23.5 21.3 8.8 28.5 15.2 45.2 29.8 17.2 14.9 47.8 12.9 40 44.7-9.9 40-43.5 30.8-72.1 35.9-29.1 5.3-36.4 26.6-37.8 51.5-1.5 24.6-13.9 46.4-9.8 72.1 9.2 58 87.3 40.2 130.4 40.8 12.9 0.2 28.9 4.3 38-5.7 10.2-11.3-1.3-25 4.1-36 9.9-20.5 55.3-13.2 73.8-13 27 0.3 54.1-0.2 81.2 0.2 32.7 0.6 50.7-2.8 54.7-36.4 3.7-31.5 37.3-20.2 46.3-45.1 5.4-14.9-0.7-43.2-0.7-59.5 0-21.2 0.4-42.5 0.1-63.7-0.2-8.9-2.2-19.8-0.2-28.5 5.9-25.4 28.8-22.5 50.3-21.9 31.8 0.9 63.6 0.4 95.4 0.4 53 0 112.3-3.8 154.4 32.6 8.8 7.6 18.9 17.7 26.7 26.4 9.9 11.1 12.5 26.1 21 37 7.4 9.6 18.7 11.7 23.9 23.8 6.1 14.3 1.5 38.3 1.3 53.4-0.1 14.6-3.9 43 11 52.8 7.7 5.1 22.9 0.4 31.9 1.8 16.8 2.7 26.4 13.6 41 20.5 27.4 12.9 66.4 6.3 95.7 6.3 37.5 0 63.6 0.1 99.7 12.6 25.7 8.8 51.3 8.7 77.3 14.7 8.3 1.9 28.3 5.4 34.9 10.7 17.7 14.3 8.1 52.3 4.1 70.4-4.6 21.2-4.1 42.6-4.2 65.2 182.2 1.2 364.7 2.1 546.1-9.1 101.5-6.2 204.7-0.7 306.5-0.7 31.2 0 62.4-0.1 93.6-0.1 20.2 0.1 40.4 0.7 60.6-0.6 19.7-1.4 69.3 0.6 85.5-15.8-18.2-6.6-37.3-4.4-56.3-13.1z"/>
	</g>
	<g id="Layer 3">
		<path id="&lt;Path&gt;" class="s3" d="m-0.5 1010.3l616.2-100.1c0 0 695.7 167.4 785 128.6 89.3-38.8 856-125 856-125l112.5 44.1 216.3 52.4 162.3 55.8c0 0 503.2 46 579 41.7 75.8-4.4 809.4-172.5 879.2-197.6 69.7-25.1 848.8 132.6 848.8 132.6l275.9-129c0 0 624.5 73.7 676 86.2 51.6 12.5 488.1 57.8 488.1 57.8h539.6l506.3-99.9 458.8 150.1v520.6h-8000z"/>
	</g>
	<g id="Layer 4">
		<path id="&lt;Path&gt;" class="s4" d="m380.1 1260.7l757.9-346.9-48.5 135 91-135 472.9 268.4-163.4-182.2 290.7 54.9 291 32.4 297.5 57c0 0-194.4-40.9-212.6-58.6-18.2-17.8-339.5-42.9-485-85.7-145.5-42.8-473-145.2-473-145.2 0 0-242.5 30.3-509 97-266.5 66.7-690.1 133.9-690.1 133.9l871.7-127.8z"/>
		<path id="&lt;Path&gt;" class="s4" d="m7746.9 1249.1l60.6-104.8 139.4-86.5c0 0-139.4 415.5-109.1 348.8 30.3-66.7 133.4-262.3 133.4-262.3l28.3 20v-250.5l-392.1 230.5-151.6 147.1 291.1-147.1z"/>
		<path id="&lt;Path&gt;" class="s4" d="m2769 1218.6l248.6-224.3 697.3 150-296.1-142.3c-117.3-27.5-226.7-55.6-226.7-55.6 0 0-156.3-31-174.5-32.6-18.2-1.6-60.6 1.6-181.8 56.2-121.3 54.6-466.6 174.3-466.6 174.3l515-144.3z"/>
		<path id="&lt;Path&gt;" class="s4" d="m5388.3 1057.8c90.9-9 309.2-47.5 309.2-47.5 0 0 291-122.4 272.9-96.5-18.2 25.9-279 274.5-279 274.5l315.3-188.3 42.5-86.2c0 0 42.4 74.4 60.6 95.6 18.2 21.2 97 97 115.2 134.9 18.2 37.9 115.2 177.4 115.2 177.4l-157.6-321.7h30.3l194 57.8 309.2 86.5-133.4-83.3 319 83.3c0 0 129.7 105 147.9 104.8 18.2-0.2 369.8 130.5 369.8 130.5l-266.8-142.5c-78.7-23.4-136.3-72.6-250.9-121.6-141.9-60.6-240.1-72.7-452.4-125.4-212.2-52.6-266.7-92.8-345.6-135.3-78.8-42.4-157.6 0-157.6 0 0 0-375.9 133.4-412.3 145.2-36.4 11.8-460.8 42.8-479 42.8-11.9 0-224.2 7.8-412.3 16.6h-0.1c0 0 654.9 7.3 745.9-1.6z"/>
		<path id="&lt;Path&gt;" class="s5" d="m713.7 1456.4l545.6-370.7 472.9 371.2-551.7-543.1-91 135 48.5-135-757.9 346.9 460.8-96.9z"/>
		<path id="&lt;Path&gt;" class="s5" d="m871.2 957.9l-871.7 127.8v328.1l132-67.9z"/>
		<path id="&lt;Path&gt;" class="s5" d="m4642.4 1059.4h0.1z"/>
		<path id="&lt;Path&gt;" class="s6" d="m1180.5 913.8l551.7 543.1-472.9-371.2-545.6 370.7 127.2-292.6-460.8 96.9 491.1-302.8-739.7 388-132 67.9v271.7l2462-17.5-808.1-485.8z"/>
		<path id="&lt;Path&gt;" class="s5" d="m5970.4 913.8l-253.3 250c66.1-63.3 238.6-229.1 253.3-250z"/>
		<path id="&lt;Path&gt;" class="s5" d="m5060.9 1352c6-18.2 344.9-133.4 344.9-133.4 0 0 243.2-84.9 257.4-110.8 14.1-26 264.7-168.1 307.2-194 18.1-25.9-272.9 96.5-272.9 96.5 0 0-218.3 38.5-309.2 47.5-91 8.9-745.8 1.6-745.8 1.6-99.1 4.7-191.5 9.7-244.5 14-153.5 12.4-671-36.7-698.3-20.2-14.3 8.6-152.4-21-280.9-51.2l296.1 142.3-697.3-150-248.6 224.3 115.2-218.6-515 144.3-297.5-57-291-32.4-290.7-54.9 163.4 182.2 808.1 485.8 1872-13.3c237.2-94.4 722.8-289 727.4-302.7z"/>
		<path id="&lt;Path&gt;" class="s6" d="m4206 1705.3l1457.2 236.5 415.3-116.9v-182.6l-1745 12.4c-76.8 30.5-127.5 50.6-127.5 50.6z"/>
		<path id="&lt;Path&gt;" class="s6" d="m5713.1 1175.3l3.9-11.5h0.1c-15.9 15.2-25.7 24.5-25.7 24.5z"/>
		<path id="&lt;Path&gt;" class="s6" d="m5663.2 1321.7l49.9-146.4-21.7 13c0 0 9.8-9.3 25.7-24.5l253.3-250c-42.5 25.9-293.1 168-307.2 194-14.2 25.9-257.4 110.8-257.4 110.8 0 0-338.9 115.2-344.9 133.4-4.6 13.7-490.2 208.3-727.4 302.7l1745-12.4v-534.5z"/>
		<path id="&lt;Path&gt;" class="s5" d="m6225 1144.3c-18.2-37.9-97-113.7-115.2-134.9-18.2-21.2-60.6-95.6-60.6-95.6l-42.5 86.2-293.6 175.3-49.9 146.4 415.3-213.9v534.5l272.8-1.9-11.1-318.7c0 0-97-139.5-115.2-177.4z"/>
		<path id="&lt;Path&gt;" class="s6" d="m7946.9 1057.8l-219.2 356 19.2-164.7-218.3 130.5-376-142.5 266.8 142.5 66.7 34.2h-145.5c0 0-187.9-25.4-224.2-34.2-36.2-8.9-163.8-82.2-214.7-101.5-51-19.4-185.6-133.8-185.6-133.8l254.7 235.3-466.9-203.6 103.1 145.7-115.2-72.6c0 0-278.9-249.1-309.2-249.1l157.6 321.7 11.1 318.7 1433.4-10.2 53.1-223.6c-30.3 66.7 109.1-348.8 109.1-348.8z"/>
		<path id="&lt;Path&gt;" class="s5" d="m7999.5 1164.3l-28.3-20c0 0-103.1 195.6-133.4 262.3l-53.1 223.6 214.8-1.6z"/>
		<path id="&lt;Path&gt;" class="s5" d="m7116.4 1379.6c36.3 8.8 224.2 34.2 224.2 34.2h145.5l-66.7-34.2c0 0-351.6-130.7-369.8-130.5-18.2 0.2-147.9-104.8-147.9-104.8l-319-83.3 133.4 83.3c0 0 134.6 114.4 185.6 133.8 50.9 19.3 178.5 92.6 214.7 101.5z"/>
		<path id="&lt;Path&gt;" class="s5" d="m7946.9 1057.8l-139.4 86.5-60.6 104.8-19.2 164.7z"/>
		<path id="&lt;Path&gt;" class="s5" d="m6607 1321.7l-103.1-145.7 466.9 203.6-254.7-235.3-309.2-86.5-194-57.8h-30.3c30.3 0 309.2 249.1 309.2 249.1z"/>
		<path id="&lt;Path&gt;" class="s5" d="m7746.9 1249.1v-104.8l-291.1 147.1c0 0-127.3-30.4-242.5-42.3-22.1-2.3-42-6.4-60.7-12l376 142.5z"/>
	</g>
	<g id="Layer 2">
		<path id="&lt;Path&gt;" class="s7" d="m3336 913.8c0 0 973 141.1 1318.6 201.7 345.6 60.7 3344.9 427.3 3344.9 427.3v457.2h-1871.5l-2801.2-951.2z"/>
		<path id="&lt;Path&gt;" class="s8" d="m7110.2 1758.2l889.3 241.8h-2144.3l-1697.7-514.6 284.9-163.7c0 0 897.4 111.9 939.8 134.7 42.5 22.9 1728 301.8 1728 301.8z"/>
		<path id="&lt;Path&gt;" class="s7" d="m3116.1 1117c0 0 228.9-57.6 269.8-87.9 41-30.3 61.5-47.9 53.8-63.6-7.6-15.8-44.7-36.4-44.7-36.4l-38.2-10.2-20.8-5.1-8-0.9c0 0-1197.9 297.6-1440.7 335 178.3-19 487.5-54.2 646.8-85.4 231.9-45.5 486.5-90.9 441.1-72.7-45.5 18.1-613.9 200-814 241-200.1 40.9-686.7 127.3-864 168.2-177.4 40.9-327.4 73.2-327.4 73.2 0 0 50-8.7 277.4 0 142 5.4-317.9 247.2-682.9 427.8h2815.6c0 0 291-322.9 295.5-427.8 4.6-105-559.3-455.2-559.3-455.2z"/>
		<path id="&lt;Path&gt;" class="s9" d="m2820.5 1685.5c354.7-77.3 377.5-118.3 395.7-159.2 18.2-40.9-227.4 22.7-1027.7 141-800.4 118.2-463.9 59.1-304.7 22.7 159.1-36.4 1127.7-341 1186.8-368.3 59.2-27.3-131.8-13.7-300.1-50-24.7-5.4-42.1-13.2-53.9-22.6-271 95.3-647.1 228.7-778.2 281.8-213.8 86.4-1273.3 291-1350.6 318.3-77.3 27.3-386.5 150.8-386.5 150.8h1362.8c96.7-23.9 193-45.9 269.7-59.9 250.1-45.5 632-177.3 986.7-254.6z"/>
		<path id="&lt;Path&gt;" class="s10" d="m3861.9 1521.8c-209.2-150.1-768.5-377.5-768.5-377.5h-77.1c0 0-129 44.8-299.7 104.8 11.8 9.4 29.2 17.2 53.9 22.6 168.3 36.3 359.3 22.7 300.1 50-59.1 27.3-1027.7 331.9-1186.8 368.3-159.2 36.4-495.7 95.5 304.7-22.7 800.3-118.3 1045.9-181.9 1027.7-141-18.2 40.9-41 81.9-395.7 159.2-354.7 77.3-736.6 209.1-986.7 254.6-76.7 14-173 36-269.7 59.9h2543.3c0 0-36.3-328.2-245.5-478.2z"/>
		<path id="&lt;Path&gt;" class="s11" d="m710.6 1624.6c-3.3-0.2-10.4 1.2-21 4 20.4-2 29.4-3.5 21-4z"/>
		<path id="&lt;Path&gt;" class="s12" d="m296.8 1658.2c0 0 222.8-45.5 513.8-163.7 272-110.5 405-228.8 421.2-243.8-255 22.4-661.5 265.9-885 321.5-236.5 58.7-347.3 72.3-347.3 72.3v236c221-84.7 594.4-226.1 690.1-251.9-88.8 9.1-392.8 29.6-392.8 29.6z"/>
		<path id="&lt;Path&gt;" class="s11" d="m2534.1 1162.5c-159.3 31.2-468.5 66.4-646.8 85.4q-4.2 0.7-8.1 1.2c-222.8 31.6-354.7 4.8-604.8 0-13.6-0.2-27.9 0.3-42.6 1.6-16.2 15-149.2 133.3-421.2 243.8-291 118.2-513.8 163.7-513.8 163.7 0 0 304-20.5 392.8-29.6 10.6-2.8 17.7-4.2 21-4 8.4 0.5-0.6 2-21 4-95.7 25.8-469.1 167.2-690.1 251.9v119.5h564.8c365-180.6 824.9-422.4 682.9-427.8-227.4-8.7-277.4 0-277.4 0 0 0 150-32.3 327.4-73.2 177.3-40.9 663.9-127.3 864-168.2 200.1-41 768.5-222.9 814-241 45.4-18.2-209.2 27.2-441.1 72.7z"/>
		<path id="&lt;Path&gt;" class="s9" d="m3422.8 1000c0 0 1401.6 309.5 2026.1 418.7 624.5 109.1 1546.1 321.3 1661.3 339.5 115.2 18.2-1406.6-248.6-1952.3-266.8-545.7-18.1-1145.9-96.4-1267.2-111.8-121.3-15.5-736.2-173.3-755.4-217.9-19.2-44.7 191.5-112.9 191.5-112.9z"/>
		<path id="&lt;Path&gt;" class="s5" d="m7999.5 1542.8c0 0-1198.2-75.9-883.1 0 315.2 76 1097.3 342.7 715.3 276.1-381.9-66.7-4362.3-808.6-4362.3-808.6l4530.1 989.7z"/>
	</g>
	<g id="Layer 1">
		<path id="&lt;Path&gt;" class="s13" d="m3289.9 1740.5q1.2-3 2.5-5.8c-2.1 1-3.1 2.8-2.5 5.8z"/>
		<path id="&lt;Path&gt;" class="s14" d="m6901.7 2000c0 0-94.8-60.8-779-250.3-370.9-102.7-1007.7-219.3-1568.6-318.8q-12.1 0-24.2-0.1c-31.6-0.1-65.9-4.6-96.9 2 9.9 12.2 22 5.1 35.3 6.2 22.6 1.7 30.1 15.7 48.4 24.4 18.3 8.7 41.4 7.1 60.9 14.7 17.6 6.9 33.4 18.5 51.5 23.9 51.2 15.4 114.1 30.3 152.1 70.7-4.9 5.3-47.4 12.1-58.3 12.9-27.8 2.1-56.5-0.2-84.4-0.2-49.5 0-99 0-148.5 0-21.9 0-79.6-11-93.4 6.6q6.5 4.8 12.9 9.8c-34.8 12.3-71.7-8.1-106.5-7.3-19.5 0.4-34.7-1.4-52.8-8.8-24.6-10-50.7-14.6-75.1-24.1-74.2-29.1-154.2-41.8-232.7-49.6 16.8 11.9 27.9 60.2-1 64.3 17.1 2.7 47.2 15.8 52 34.7-20.9 14.6-64.5-17.5-82.4-24-28.5-10.4-98.7-28.7-119.5 0.5q4.9 12.4-5.9 17.5-10.9 0.2-21.2-3.3-13.5-3.6-26.2-9.2-5.5-4.6-8.3-11c-20.6-10.1-43.8-12.3-65.3-27.6-14.7-10.6-49.7-47.3-61.5-23.1-6.7 13.5 4.1 32.4 0.1 46.4-3.1 10.7-7.7 13.8-9.8 25.7-3.5 19.7 1.6 28.5-8.8 46.6-12.1 21.1-13.5 12.5-34.3 17.3-28.4 6.6-54.7 34-82.2 46.1q-1.6 10.7-12.7 9.4-12.3-2.5-24.2 1.4c-7.1 4.6-10.9 14.2-11.8 22.3-30.7-25.5-46.3-7.4-80.8-5.5-9.1 0.5-37.5-10-46.2-5.8q-1.3 2.8-2.5 5.8c-0.6-3 0.4-4.8 2.5-5.8 8.6-20.6 17.3-40.4 24.9-60.4-301.2 131.8-820.9 325.7-820.9 325.7z"/>
		<path id="&lt;Path&gt;" class="s15" d="m4629.1 1502c-18.1-5.4-33.9-17-51.5-23.9-19.5-7.6-42.6-6-60.9-14.7-18.3-8.7-25.8-22.7-48.4-24.4-13.3-1.1-25.4 6-35.3-6.2 31-6.6 65.3-2.1 96.9-2q12.1 0.1 24.2 0.1c-473.8-84.1-893.4-156-1052.4-197-231.6-59.6-314.6-81.3-301.4-105.4q-2.3-0.1-4.6-0.1c-2 0-3.9-0.3-5.9 0.1-3.1 0.7-5.3 3.2-8.2 4.1-5.1 1.4-11.3 0.4-16.5 0.4-9.9-0.1-6.5-1.3-7.8-9.3-1.5-9-11.1-2.8-17.1-1.3-6.9 1.8-14 2.2-21 3.6-6.2 1.3-19.4 7.5-26.5 5.2 3.3-3.4 8-7.4 10.5-11.3 1.6-2.6 2.1-4.9 4.3-7.4 3.5-4 7.7-8.8 11.9-12.1 4.4-3.5 8-7.1 11.2-11-18.7 5.9-38.6 12.8-60 20.8-168.4 63.2 65.5 121.5 275.2 254.7 124.8 79.2 298 163.8 3.2 295.4q-15.4 6.8-31.7 14c-7.6 20-16.3 39.8-24.9 60.4 8.7-4.2 37.1 6.3 46.2 5.8 34.5-1.9 50.1-20 80.8 5.5 0.9-8.1 4.7-17.7 11.8-22.3q11.9-3.9 24.2-1.4 11.1 1.3 12.7-9.4c27.5-12.1 53.8-39.5 82.2-46.1 20.8-4.8 22.2 3.8 34.3-17.3 10.4-18.1 5.3-26.9 8.8-46.6 2.1-11.9 6.7-15 9.8-25.7 4-14-6.8-32.9-0.1-46.4 11.8-24.2 46.8 12.5 61.5 23.1 21.5 15.3 44.7 17.5 65.3 27.6q2.8 6.4 8.3 11 12.7 5.6 26.2 9.2 10.3 3.5 21.2 3.3 10.8-5.1 5.9-17.5c20.8-29.2 91-10.9 119.5-0.5 17.9 6.5 61.5 38.6 82.4 24-4.8-18.9-34.9-32-52-34.7 28.9-4.1 17.8-52.4 1-64.3 78.5 7.8 158.5 20.5 232.7 49.6 24.4 9.5 50.5 14.1 75.1 24.1 18.1 7.4 33.3 9.2 52.8 8.8 34.8-0.8 71.7 19.6 106.5 7.3q-6.4-5-12.9-9.8c13.8-17.6 71.5-6.6 93.4-6.6 49.5 0 99 0 148.5 0 27.9 0 56.6 2.3 84.4 0.2 10.9-0.8 53.4-7.6 58.3-12.9-38-40.4-100.9-55.3-152.1-70.7z"/>
		<path id="&lt;Path&gt;" class="s16" d="m3390.4 1040.4q-7.8 0.7-15.4 2.2c-4 0.6-9.8 1.7-13.9 0.3 1.2-1 1.7-1.7 2.3-3.1 0.8-1.7 2.3-2.9 3.6-4.1-3.1-0.4-6.6 0-9.7 0-1.4 0-2.8-0.1-4.2 0.1-0.7 0.1-1.3 0.4-2.1 0.4-1.4 0.1-2.5 0.5-3.9 0.5-2.8 0-5.4-0.1-8.1 0.2-5.9 0.6-11.4 1.9-17.3 1.7 0.1-1.1 2.5-1.2 3.9-1.9-52.4 16.6-111.2 25.8-195 52.7-3.2 3.9-6.8 7.5-11.2 11-4.2 3.3-8.4 8.1-11.9 12.1-2.2 2.5-2.7 4.8-4.3 7.4-2.5 3.9-7.2 7.9-10.5 11.3 7.1 2.3 20.3-3.9 26.5-5.2 7-1.4 14.1-1.8 21-3.6 6-1.5 15.6-7.7 17.1 1.3 1.3 8-2.1 9.2 7.8 9.3 5.2 0 11.4 1 16.5-0.4 2.9-0.9 5.1-3.4 8.2-4.1 2-0.4 3.9-0.1 5.9-0.1q2.3 0 4.6 0.1c6.7-12.1 37.3-24.9 85.6-43.3 36.6-14 78.3-28.9 111.4-45q-3.5 0-6.9 0.2z"/>
		<path id="&lt;Path&gt;" class="s17" d="m3449.6 967c-36.8-47.4-121.6-54.1-121.6-54.1 19.8 3.7 148.6 43.9 78.9 87.1-27.2 16.9-53.3 27.8-81.3 36.7-1.4 0.7-3.8 0.8-3.9 1.9 5.9 0.2 11.4-1.1 17.3-1.7 2.7-0.3 5.3-0.2 8.1-0.2 1.4 0 2.5-0.4 3.9-0.5 0.8 0 1.4-0.3 2.1-0.4 1.4-0.2 2.8-0.1 4.2-0.1 3.1 0 6.6-0.4 9.7 0-1.3 1.2-2.8 2.4-3.6 4.1-0.6 1.4-1.1 2.1-2.3 3.1 4.1 1.4 9.9 0.3 13.9-0.3q7.6-1.5 15.4-2.2 3.4-0.2 6.9-0.2c44.7-21.9 73.5-46 52.3-73.2z"/>
	</g>
	<g id="Layer 7">
		<path id="&lt;Path&gt;" class="s1" d="m3382.6 1374.9c-8.6-5.3-17.5-9.9-26-15.3-61.3-38.9-124.1-68.1-179.5-96.6-86.2-44.3-162.3-79.2-160.6-109.2 0.9-15.1 27.4-31.2 64.7-45.2 75.4-28.2 113.9-38.3 163.5-50.3 1.6-0.4 25-6.5 26.7-6.9 1.5-0.8-1.3 0.6 0 0q-4.9 1.2-9.8 2.4c-49.7 12-105.9 25.7-181.5 54-39 14.6-64.6 29.2-65.6 45.8-1.8 31.9 70.7 65.6 161.3 112.1 55.3 28.4 118 60.6 179.2 99.4 8.5 5.5 17.4 11 26.1 16.4 69.8 43.4 141.1 88.3 137.4 141.9-2.9 43.4-46.8 88.4-152.3 135.4-291.3 130.1-823.8 339.1-829.4 341.2h118.7c5.6-2.1 444.3-201.9 735.7-332 106.6-47.6 141.6-100.5 144.6-145.1 3.8-55.4-82.5-104.1-153.2-148z"/>
		<path id="&lt;Path&gt;" class="s1" d="m6749.8 1948c-99.6-35.5-292.6-98.4-646.1-196.2-417.3-115.6-1169.8-248.5-1774.5-355.3-381.6-67.4-701.3-128.5-836.8-163.4-206.2-53.1-293.6-77.1-294.9-98.5-0.7-13 18.7-24.1 69.5-43.5 6.7-2.6 58.3-20.9 65.3-23.5 12.9-4.8 24.5-9.6 34.7-13.8l-26.4 10.4q-2 0.8-4.2 1.7l-0.5 0.2q-2.3 0.8-4.6 1.7c-7 2.6-58.7 19.9-65.4 22.5-55.2 21.1-70.5 32.4-70.4 44.7 0 11.8 30.5 26.9 81.3 42.9 49.8 15.7 108.1 31.1 209.6 57.3 135.6 34.9 460.6 105.8 842.2 173.2 604.7 106.8 1349.2 248.7 1766.3 364.2 352.8 97.7 386.1 111.3 485.7 146.7 108.1 38.5 238.2 80.5 238.4 80.7h67.3c-1-0.6-28.3-13.5-136.5-52z"/>
		<path id="&lt;Path&gt;" class="s1" d="m3336.4 1065.9q-0.3 0.1-0.5 0.2z"/>
		<path id="&lt;Path&gt;" class="s1" d="m3230.8 1081.8q-0.3 0.1-0.5 0.2z"/>
		<path id="&lt;Compound Path&gt;" fill-rule="evenodd" class="s1" d="m4721.3 2000h-176.8c0 0-30.8-284.9-282.4-427.8-215.4-122.3-792.1-287.8-1005.3-353.6-18-5.5-34.5-9.5-49.6-13.8q0.3 0 2 0.5 0 0 0 0-1.7-0.5-2-0.5 0 0 0 0-0.1-0.1-0.1-0.1 0 0 0 0l1.2-0.2-1.2 0.2c-12.7-3.7-23.5-7.2-34.9-10.8-50.8-16-58.3-31.2-58.3-42.9-0.1-12.3-8.8-23.7 46.4-44.8 6.7-2.6 58.4-19.8 65.3-22.5q2.4-0.8 4.7-1.7l0.5-0.2q2.1-0.8 4.2-1.6l150.9-51.1c-10.2 4.2-146.3 49.6-159.2 54.5-7 2.6-58.6 20.9-65.3 23.4-50.8 19.4-46.2 30.5-45.5 43.5 0.8 13 15.8 29.3 93.3 51.4 0.9 0.3 94 28.6 281.4 77.8 34 8.9 122.4 36.3 159.2 46.2 265.2 71.7 459.9 139.7 644.1 224.9 350.7 162.3 427.4 449.2 427.4 449.2zm-1514.1-795.2q0 0 0 0 0 0 0 0 0 0 0 0 0 0 0 0zm45.1 12.6q0.7 0.2 1.3 0.3-0.6-0.1-1.3-0.3zm-33.4-9.4q-0.4-0.1-0.7-0.2 0.3 0.1 0.7 0.2zm0.2 0.1q-0.1-0.1-0.2-0.1 0.1 0 0.2 0.1zm0.9 0.2q0.3 0.1 0.5 0.2-0.2-0.1-0.5-0.2zm9.2 2.6q0.4 0.1 0.7 0.2-0.3-0.1-0.7-0.2zm-5.6-1.6q2.6 0.8 5.6 1.6-3-0.8-5.6-1.6zm12.1 3.4q-3-0.8-5.7-1.6 2.7 0.8 5.7 1.6zm3.5 1q0.2 0 0.4 0.1-0.2-0.1-0.4-0.1zm0.4 0.1q0.5 0.1 1.1 0.3-0.6-0.2-1.1-0.3zm7.7 2.2q-0.5-0.2-1.1-0.4 0.6 0.2 1.1 0.4zm3.3 0.9q-0.8-0.2-1.5-0.4 0.7 0.2 1.5 0.4zm-35.4-9.9q0 0 0 0 0 0 0 0 0 0 0 0zm6.8 1.9q0.3 0.1 0.5 0.1-0.2 0-0.5-0.1zm14.7 4.1q0.7 0.2 1.4 0.4-0.7-0.2-1.4-0.4zm5.5 1.5q1.1 0.3 2.2 0.6-1.1-0.3-2.2-0.6z"/>
		<path id="&lt;Path&gt;" class="s1" d="m3386 1029.2l-0.1-0.2c0.1-0.1 14.5-7.4 28.4-16.8 18.5-12.6 27.8-23.2 27.1-30.8-1.7-18.8-18.6-35-34.6-42.9-43.4-21.3-78.5-25.6-78.8-25.6 0.3 0 35.4 4.2 78.9 25.6 16 7.8 33 24 34.8 42.9 0.7 7.8-8.4 18.2-27.2 31-14 9.5-28.4 16.8-28.5 16.8z"/>
	</g>
	<g id="Layer 8">
		<path id="&lt;Path&gt;" class="s18" d="m5541.8 1224.8c0 0-415.7 2.4-356.6 11 59.1 8.6 413.8 32.3 413.8 32.3l54.2-14.4z"/>
		<path id="&lt;Path&gt;" class="s18" d="m2289.6 1161.4l-99.4 24-151.4 33.2c0 0 156.5-22.7 211-28.6 54.6-5.9 112.6-28.6 112.6-28.6z"/>
		<path id="&lt;Path&gt;" class="s18" d="m1026.9 1678.2c0 0-469.8 41.9-411.2 67.8 58.5 25.9 581.2-24.1 581.2-24.1z"/>
		<path id="&lt;Path&gt;" class="s5" d="m2434.7 1076.5c-2.8-4.7-6.9-7.8-9.5-13-2.5-5.1-4.2-10.8-7.9-15.2-3.9-4.6-10.3-9-11.8-15.1-1.8-7.5 1-15.2-3.6-22.4-2.7-4.2-5.6-5.4-6.2-11.1-0.5-4.8 0.2-9.9 0.2-14.6-0.1-9.2 2.9-17 2.4-25.9-0.5-9.1-8.3-8.8-15.5-11.8-7.3-3-13.5-4.2-17.9-11.2-1.9-3.1-2.3-3.4-2.2-8.1 0.1-6.8-1.5-7-6.6-11.2-7.1-5.7-13-8.9-21.9-11.2-8-2.1-18.6-0.7-19.1-0.6q0 0.1 0 0.1 0 0 0-0.1c-2.7-3.4-6.7-1.7-10.5-2.5-3.6-0.8-5.5-2-9.4-2.2-12.5-0.5-25.1 0.2-37.6 0.1-9-0.1-21.6 0.6-25.3 11.2-3.4 9.4 3 17.6-5.1 26.2-3 3.2-9.8 6.1-11.5 10.2-1 2.3-0.3 5.3-0.3 7.8 0 3.5-0.3 7.5-0.5 11.4q3.2 1.3 5.8 3.7c8.3 3.7 15.4 5.8 22.7 11.6 4.2 3.3 5.2 7.4 8.9 11.1 5 5.1 13 8.7 19.5 11.4q7.1 2.2 14 5.3 3.8 2.7 8.4 2.7c2.1 2 2.8 5.6 2.3 8.8-2.1 12.7-20.1 15.4-31.2 17.5-1.2 6.7 8.2 4.4 10.7 6.9 4.2 4.2-3.5 9.1-7.6 11.1-7 3.6-14.7 3.1-20.9 8.6-4.9 4.3-2.5 7.1-3.4 13-0.8 4.7-4.3 6.4-6.3 10.4-1.6 3.4-1.1 7-1 10.6 0.1 5.5-0.3 6.6-3.3 10.9-2.6 3.7-5.6 7.9-2.1 12.1 1.7 2.1 9 3.4 11.5 4.6 2.8 1.5 5.4 3.6 8.3 4.9 4.2 2 8.8 3.4 13.1 5.2 5.7 2.3 9.2 1.1 14.7 2.1 6.4 1.1 5.7 3.7 2.1 7.2-3.3 3.4-8.4 5.6-11.3 9.4-2.1 2.7-2.2 5.1-2.2 7.9 4.7 0.8 9.4 1.5 14.3 1.5 6.3 0.1 14 1 19.9 2.5 3.4 0.9 3.3 2.2 8 2.3 3.3 0 6.6-0.1 10-0.1 6.3 0 14.2 1.1 20.4-0.5 2.6-0.7 4-1.7 7-1.9 3.5-0.2 7.1 0 10.7 0 3.5 0.1 6.3 0.8 9.5-0.9 2.9-1.7 6.9-6.1 9.5-8.4 5.9-5.7 13.4-5.6 21.2-8.5 9.2-3.5 15.5-4 20-12.7 3.6-6.9 4.1-10.5 3.9-18.7-0.1-4.9-0.9-9 2.3-12.9 2.6-3 9.9-3.6 11.7-6.5 2.5-3.9 0.9-19.2-1.3-23z"/>
		<path id="&lt;Path&gt;" class="s19" d="m2269.8 1156.4c2.9-3.8 8-6 11.3-9.4 3.6-3.5 4.3-6.1-2.1-7.2-5.5-1-9 0.2-14.7-2.1-4.3-1.8-8.9-3.2-13.1-5.2-2.9-1.3-5.5-3.4-8.3-4.9-2.5-1.2-9.8-2.5-11.5-4.6-3.5-4.2-0.5-8.4 2.1-12.1 3-4.3 3.4-5.4 3.3-10.9-0.1-3.6-0.6-7.2 1-10.6 2-4 5.5-5.7 6.3-10.4 0.9-5.9-1.5-8.7 3.4-13 6.2-5.5 13.9-5 20.9-8.6 4.1-2 11.8-6.9 7.6-11.1-2.5-2.5-11.9-0.2-10.7-6.9 11.1-2.1 29.1-4.8 31.2-17.5 0.5-3.2-0.2-6.8-2.3-8.8q-4.6 0-8.4-2.7-6.9-3.1-14-5.3c-6.5-2.7-14.5-6.3-19.5-11.4-3.7-3.7-4.7-7.8-8.9-11.1-7.3-5.8-14.4-7.9-22.7-11.6q-2.6-2.4-5.8-3.7c-0.1 2.9 0 5.7 0.4 8.3 0.6 3.6 3 6.7 4.8 9.7 2.4 4 3.3 10.6 6.2 13.8 3 3.3 4.6 1 5.9 6.3 1 4.2-0.2 7.9-2.4 10.7-4.3 5.6-13.6 9.7-19.3 13.6-3 2.1-3.8 2.5-4.7 5.6-1 3.4 0.3 6.6-1.7 9.9-6 9.5-23.2 8.1-31.6 15.4-2 1.7-3.3 4.1-1.9 6.7 2.5 4.6 6 1.8 6.9 8.1 0.4 2.6-0.9 5.7-0.3 8.3 1.1 4.2 3.5 2.9 6 5.9 2.3 2.7 1.5 7 1.4 10.4-0.1 2.2 0.6 4.5-0.4 6.6-1 2.1-3.4 2.3-4.5 3.8-4 5.6-3.4 14.7 0.7 19.6 4.6 5.6 7.2 11.6 14.1 14.6 6.1 2.6 7.7 5.2 12.4 9.4 2.4 2 2.9 1.6 5.8 2.3 5.4 1.3 10.4 4 15.8 4.7 4.7 0.6 9.5 0.1 14.3 0.1 8.6 0 16.6 1.9 24.8 3.2 0-2.8 0.1-5.2 2.2-7.9z"/>
		<path id="&lt;Path&gt;" class="s19" d="m1072.2 1695.4c-3.5-2.8-6.9-7.1-9.7-9.5-2.8-2.3-9.9-2.3-6.6-8.6 6.1-0.4 9.6-4.5 15-6.7 3.8-1.5 17.9-0.6 19.7-5.7 2.2-6.7-6.4-7.3-10.8-8.2-15.7-3.5-31.4-7.6-47.3-10.7q-8.8 0.8-14.1-6-0.5-3.9 2.6-5.9c1.1-4.5 1.9-12.2 0.9-16.8-1.6-7.3-8.9-11-14-16.4-6.7-7.1-11.6-17.2-15.3-26.7-1.6-4.3-5.3-12.4-3.1-17.3 2-4.5 4.9-4.5 8.9-7.6 4.3-3.4 7.5-8.1 9.6-13.1 1.5-3.8 1.2-5.3 1.9-9.6 0.7-4.7 4.1-7.8 5.4-12.1 1.1-3.8 0.6-8 0.6-12-0.2-10.7 0.1-15.3 11.8-15 5.9 0.1 28.9 1.6 32-6 1.4-3.3-3-7.7-3.3-12-0.2-4.5 1.5-11.7-1.8-15.4-2.9-3.3-5.7-2.3-9.6-3.3-10.8-2.8-20.6-7.9-29.1-14.5-6-4.6-15.8-10-17.7-17.9-0.5-2.1-0.4-5.5-0.2-8.5-6.1 4.6-11.9 9.1-15.4 17.6-1.9 4.6-0.7 9.5-3.2 13.5-2 3.3-6.4 5.7-8.9 8.8-7.4 9.4-9.5 23.9-7.1 35.7 2 9.8 6 15.5-1.2 25-3.9 5.3-5.4 7.5-8 13-2.4 5.1-4.8 9.6-7.1 14.9-3.3 7.5-6.6 10.5-6.9 19.1-0.1 4.5 0.9 9.5 0.3 14-1.5 10.9-3.3 22-8.9 31-8.7 14 0.3 36 0.1 51.5-0.1 4.6-1 9.5 1.5 13.5 2.6 4.1 6.3 4.3 7.4 9.2 1 4.4-0.5 7.5 1.7 12 4.2 9 10.2 10.4 17.7 15.1 3.4 2 8.1 5.1 11 7.9 1.5 1.5 2.6 4.5 4.2 5.5 1.4 1 3 1 4.4 1.7 2.3 1.2 5.9 2.4 8.6 3.1 4 1 8.9 2.2 13.1 3 10 2 22.5-0.1 32.7-0.1q14.1 0 28.3 0c3.6 0 8.1-0.8 11.6-0.2 4.3 0.8 7.2 3 11.6 3.3 9.2 0.5 18.6-0.1 27.7-0.1 4 0 8.5 0.5 12.9 0.6q-2.1-2.3-3.9-4.7c-11.5-15.5-35-16.5-50-28.4z"/>
		<path id="&lt;Path&gt;" class="s5" d="m1291.7 1645.3c0-17.4 3.6-38.7-4.4-54.1-2.4-4.7-6-7.7-8.5-12.1-2.5-4.2-1-8.6-3.3-13.1-2.5-4.9-4-6.6-4.2-12.5-0.2-4.9 0.1-10 0.1-14.9 0-12.2 0.1-19.5-5.9-30.1-6.1-10.6-0.2-23.8-5.5-35.4-5.8-12.5-17.1-20.9-21.2-33.7-1.7-5.2-5.4-10.1-9.4-13.6-4.7-4.2-10.7-4.2-15.5-8-4.4-3.6-7.6-10.2-12.1-13.8-3-2.4-6.7-3.1-9.6-5.8-3.9-3.6-5.4-7.3-10.9-9.2-6.2-2.1-7.8-3.5-13.1-7.9-4-3.4-8.7-5.2-13.1-7.8-1.5-0.9-4.5-2.7-5.7-3.7-2.2-1.8-3.8-5.3-5.8-6.7-6.2-4.3-21.3-1.6-29-1.6q-0.3-1.3-0.5-2.5c-9.7-2.9-26.2-1.6-36 0.1-15.9 2.7-30.5 9.6-43.7 18.9-6 4.2-13.3 7.3-18.3 12.9-2.5 2.9-4 6.8-6.6 9.6-3.6 3.9-7.6 6.8-11.5 9.6-0.2 3-0.3 6.4 0.2 8.5 1.9 7.9 11.7 13.3 17.7 17.9 8.5 6.6 18.3 11.7 29.1 14.5 3.9 1 6.7 0 9.6 3.3 3.3 3.7 1.6 10.9 1.8 15.4 0.3 4.3 4.7 8.7 3.3 12-3.1 7.6-26.1 6.1-32 6-11.7-0.3-12 4.3-11.8 15 0 4 0.5 8.2-0.6 12-1.3 4.3-4.7 7.4-5.4 12.1-0.7 4.3-0.4 5.8-1.9 9.6-2.1 5-5.3 9.7-9.6 13.1-4 3.1-6.9 3.1-8.9 7.6-2.2 4.9 1.5 13 3.1 17.3 3.7 9.5 8.6 19.6 15.3 26.7 5.1 5.4 12.4 9.1 14 16.4 1 4.6 0.2 12.3-0.9 16.8q-3.1 2-2.6 5.9 5.3 6.8 14.1 6c15.9 3.1 31.6 7.2 47.3 10.7 4.4 0.9 13 1.5 10.8 8.2-1.8 5.1-15.9 4.2-19.7 5.7-5.4 2.2-8.9 6.3-15 6.7-3.3 6.3 3.8 6.3 6.6 8.6 2.8 2.4 6.2 6.7 9.7 9.5 15 11.9 38.5 12.9 50 28.4q1.8 2.4 3.9 4.7c3.1 0.1 6.1 0 8.8-0.4 4.2-0.8 7.2-3 11.6-3.3 4.4-0.2 8.9 0.7 13.3-0.2 12.6-2.4 24.1-2.7 37.1-2.7 13.3 0 27.1 1.7 39.5-2.3 7.9-2.5 20.1-3.9 26.4-9.6 2.2-2 3.4-5.4 5.5-7.6 3.4-3.5 8-6.1 11.8-9.1 2.9-2.5 7.3-4.3 9.5-7.2 3.2-4.1 2.1-10.6 2.1-15.5-0.1-8.4 0-16.9 0-25.3z"/>
		<path id="&lt;Path&gt;" class="s5" d="m5525.5 985.6c-0.1-1.3-0.1-2.4 0-3.2q-0.6 0.9-1.2 1.7c-1.5 1.9-2.7 4.1-2.5 5.8 1.9 0 3.8 0.2 5.7 0.3-1-1-1.7-2.3-2-4.6z"/>
		<path id="&lt;Path&gt;" class="s5" d="m5559.2 964.5q1.2-0.5 2.4-0.9c-5.6 0-11.1 0-16.7-0.1-8.1-0.1-9.4-0.2-12.1 6.6-1.5 3.8-3.3 6.8-5.3 9.7 1.3-0.6 3.2-0.7 5.5-1.6 9.1-3.2 17.2-9.9 26.2-13.7z"/>
		<path id="&lt;Path&gt;" class="s5" d="m5529 991.4q1.6-0.4 3.7-1.1c-1.7 0-3.4 0-5.2-0.1 0.4 0.4 1 0.8 1.5 1.2z"/>
		<path id="&lt;Path&gt;" class="s5" d="m5525.5 982.4q1-1.3 2-2.6c-1.1 0.5-1.7 1.2-2 2.6z"/>
		<path id="&lt;Path&gt;" class="s5" d="m5731.4 1191.3c5.3-12.7 3.3-32.8-3.5-44.2-3-4.9-6.1-8.9-7.8-13.7-2.7-7.5-3.1-15.9-5.6-23.6-2.8-8.4-3.9-16.5-7.2-24.6-2.5-6.1-5.4-11.2-9.6-16.1-3.3-4.1-5.6-8.8-8.7-12.9-2.3-3-6-4.9-8.1-7.7-1.6-2.2-2.5-5.4-3.8-7.8-2.9-5.2-2.7-7.4-4-12.7-0.2-1.2 0.5-2.6 0.1-3.9-3.1-9.9-22.6-14.3-30.9-18.3-7.4-3.5-13.5-5.6-15.6-15q0 0 0 0c-1-4.5-0.1-9.3-2.5-13.4-2.4-4.2-6.9-6-11.2-7.7-6.3-2.4-13-4-19.5-5.7-4.5-1.1-9.1-2.2-13.8-2.7-6.4-0.7-12.2 0.1-18.1 2.3q1.2 0 2.3 0-1.1 0-2.3 0-1.2 0.4-2.4 0.9c-9 3.8-17.1 10.5-26.2 13.7-2.3 0.9-4.2 1-5.5 1.6q-1 1.3-2 2.6c-0.1 0.8-0.1 1.9 0 3.2 0.3 2.3 1 3.6 2 4.6 1.8 0.1 3.5 0.1 5.2 0.1q-2.1 0.7-3.7 1.1c1.1 0.8 2.3 1.6 3.3 3.2 1.4 2.1 0.4 6.4 0.4 8.8-0.1 5.3 0 10.5 0 15.7-0.1 6.1-0.7 10.6 3.1 15.7 3.6 4.7 7.7 12.4 12.2 15.8 3.6 2.8 10.2 4.8 14.5 7.2 6.9 3.8 13.5 6.7 20.9 9.2 10.3 3.5 2.9 7.8-4.5 8.7-8.9 1.1-16.2 2.2-24.4 5.7-2.2 1-8.8 1.6-10.9 3-8.5 5.7 5.6 11.9 6.9 16.4 4.3 15.4-41.4 16-32.4 30.2 7.1 11.3 22.8 12.6 33.8 16.5 10.5 3.7 22.5-0.2 33.4 1.4 10.2 1.5 19.2 6.5 29.8 6.7 5 0.1 10.6-0.9 15.4 0.1 2.7 8.8-1.2 17.2-8.5 22.2-3.3 2.4-7.2 2.5-10.2 5.3-3.5 3.2-4.9 7.7-8.6 10.9-11.6 9.8-29.7 15.6-43.7 20.2-5.1 1.6-16.1 4.8-17.7 10.5-2.3 7.6 8.5 11.1 13.8 13.8 5.3 2.7 9.7 9.1 11.7 15.1q25.9 0 51.8 0 17 0 34.1 0c4.6 0 9.1 0.3 13.6-0.4 7.7-1.2 14.7-5.3 22-6.4 4.7-0.7 6.1 0.6 9.9-3.2 2.3-2.3 2.7-5.4 4.5-7.8 2.1-2.8 5-5.3 7.9-6.8 1.5-0.8 3.7-1 5.5-2 2.7-1.6 5.2-3.8 5.9-6.9 0.7-3.3-0.6-7.7-0.3-11.1 0.6-6.9 6.5-11.3 9.2-17.8z"/>
		<path id="&lt;Path&gt;" class="s5" d="m5529 991.4c-0.5-0.4-1.1-0.8-1.5-1.2-1.9-0.1-3.8-0.3-5.7-0.3 0.2 1.8 2.1 2.8 7.2 1.5z"/>
		<path id="&lt;Path&gt;" class="s19" d="m5555.6 1238.6c-5.3-2.7-16.1-6.2-13.8-13.8 1.6-5.7 12.6-8.9 17.7-10.5 14-4.6 32.1-10.4 43.7-20.2 3.7-3.2 5.1-7.7 8.6-10.9 3-2.8 6.9-2.9 10.2-5.3 7.3-5 11.2-13.4 8.5-22.2-4.8-1-10.4 0-15.4-0.1-10.6-0.2-19.6-5.2-29.8-6.7-10.9-1.6-22.9 2.3-33.4-1.4-11-3.9-26.7-5.2-33.8-16.5-9-14.2 36.7-14.8 32.4-30.2-1.3-4.5-15.4-10.7-6.9-16.4 2.1-1.4 8.7-2 10.9-3 8.2-3.5 15.5-4.6 24.4-5.7 7.4-0.9 14.8-5.2 4.5-8.7-7.4-2.5-14-5.4-20.9-9.2-4.3-2.4-10.9-4.4-14.5-7.2-4.5-3.4-8.6-11.1-12.2-15.8-3.8-5.1-3.2-9.6-3.1-15.7 0-5.2-0.1-10.4 0-15.7 0-2.4 1-6.7-0.4-8.8-1-1.6-2.2-2.4-3.3-3.2-5.1 1.3-7 0.3-7.2-1.5-6.9-0.4-13.9-0.3-19.3 2.8-3.4 2-10.2 4.9-11.9 8.7-1.3 3-0.3 8-0.3 11.2q0 13.4 0 26.8c0 7-2.1 14.1 4.4 18.3 0.3 5.6-10.5 6.6-13.3 9.6-1.4 1.6-0.2 2.8-2.6 4.4-2.9 2.1-6.1 0.6-9.3 1.1-5.5 0.9-6.2 2.3-8.2 6.8-1.7 3.7-3.8 6.3-4.5 10.3-0.5 3 0.1 4.8-2.1 7.2-1.1 1.1-3.2 0.9-4.3 2.5-2.2 3.5 1.2 5.4 1.8 8.1 0.8 4-1.7 6-2.2 9.9-0.7 4.7 3.3 6.2 4.5 10.2 2.2 7.9-3.2 18.3 1.4 25.5 3.6 5.9 11.7 10.7 17.8 13.4 5.3 2.4 6.8 6.8 11.6 10.2 6.9 4.8 13.6 0.8 13.9 10.9 0.2 6.3 1 8.8-4.3 12.4-6.7 4.5-13 4.4-20.3 7.1-0.3 3-0.9 9.5 0 12.5 1.4 5.4 4.4 3.4 8.4 5.3 4.3 2 7.1 7.1 10.1 10.3 2.8 2.9 5.9 2.7 8.8 4.8 1.9 1.3 1.4 3 3.9 4.2 1.9 0.9 4 0.6 5.9 1.6 3.5 1.8 5.7 4.4 9.2 6 9.6 4.2 24.4 1.7 35.2 1.7q5.6 0 11.2 0c-2-6-6.4-12.4-11.7-15.1z"/>
	</g>
</svg>